<mxfile host="app.diagrams.net" modified="2023-03-16T00:29:46.126Z" agent="5.0 (X11; Linux x86_64) AppleWebKit/537.36 (KHTML, like Gecko) Chrome/96.0.4664.45 Safari/537.36" etag="b2QnRtn2W_ecCCfbOM6F" version="21.0.6" type="github" pages="3">
  <diagram name="NSW Modernisation" id="XqPy8NkvguO4C5w6nWIH">
    <mxGraphModel dx="2325" dy="1130" grid="1" gridSize="10" guides="1" tooltips="1" connect="1" arrows="1" fold="1" page="1" pageScale="1" pageWidth="827" pageHeight="1169" math="0" shadow="0">
      <root>
        <mxCell id="0" />
        <mxCell id="1" parent="0" />
        <mxCell id="z3YErRY-nyT6ZwbpQ7DC-1" value="Prod" style="html=1;overflow=block;blockSpacing=1;whiteSpace=wrap;fontSize=13;fontColor=#232f3e;spacing=0;strokeColor=#232f3e;strokeOpacity=100;fillOpacity=100;rounded=1;absoluteArcSize=1;arcSize=9;fillColor=#fcfcca;strokeWidth=0.8;container=1;pointerEvents=0;collapsible=0;recursiveResize=0;lucidId=5WbBe3lvqiHT;" vertex="1" parent="1">
          <mxGeometry x="30" y="217" width="885" height="908" as="geometry" />
        </mxCell>
        <mxCell id="z3YErRY-nyT6ZwbpQ7DC-2" value="Dev" style="html=1;overflow=block;blockSpacing=1;whiteSpace=wrap;fontSize=13;fontColor=#232f3e;spacing=0;strokeColor=#232f3e;strokeOpacity=100;fillOpacity=0;rounded=1;absoluteArcSize=1;arcSize=9;fillColor=#ffffff;strokeWidth=0.8;container=1;pointerEvents=0;collapsible=0;recursiveResize=0;lucidId=5WbBsZKfvQc7;" vertex="1" parent="1">
          <mxGeometry x="30" y="65" width="427" height="42" as="geometry" />
        </mxCell>
        <mxCell id="z3YErRY-nyT6ZwbpQ7DC-3" value="QA" style="html=1;overflow=block;blockSpacing=1;whiteSpace=wrap;fontSize=13;fontColor=#232f3e;spacing=0;strokeColor=#232f3e;strokeOpacity=100;fillOpacity=0;rounded=1;absoluteArcSize=1;arcSize=9;fillColor=#ffffff;strokeWidth=0.8;container=1;pointerEvents=0;collapsible=0;recursiveResize=0;lucidId=5WbBRygGCtRM;" vertex="1" parent="1">
          <mxGeometry x="30" y="116" width="427" height="42" as="geometry" />
        </mxCell>
        <mxCell id="z3YErRY-nyT6ZwbpQ7DC-4" value="Sandbox" style="html=1;overflow=block;blockSpacing=1;whiteSpace=wrap;fontSize=13;fontColor=#232f3e;spacing=0;strokeColor=#232f3e;strokeOpacity=100;fillOpacity=0;rounded=1;absoluteArcSize=1;arcSize=9;fillColor=#ffffff;strokeWidth=0.8;container=1;pointerEvents=0;collapsible=0;recursiveResize=0;lucidId=5WbBxwYB8.6n;" vertex="1" parent="1">
          <mxGeometry x="30" y="15" width="427" height="42" as="geometry" />
        </mxCell>
        <mxCell id="z3YErRY-nyT6ZwbpQ7DC-5" value="UAT" style="html=1;overflow=block;blockSpacing=1;whiteSpace=wrap;fontSize=13;fontColor=#232f3e;spacing=0;strokeColor=#232f3e;strokeOpacity=100;fillOpacity=0;rounded=1;absoluteArcSize=1;arcSize=9;fillColor=#ffffff;strokeWidth=0.8;container=1;pointerEvents=0;collapsible=0;recursiveResize=0;lucidId=5WbBAjnq-Y3S;" vertex="1" parent="1">
          <mxGeometry x="30" y="166" width="427" height="42" as="geometry" />
        </mxCell>
        <mxCell id="z3YErRY-nyT6ZwbpQ7DC-6" value="Region" style="html=1;overflow=block;blockSpacing=1;whiteSpace=wrap;fontSize=13;fontColor=#147eba;spacing=0;strokeColor=#147eba;strokeOpacity=100;fillOpacity=0;rounded=1;absoluteArcSize=1;arcSize=9;fillColor=#ffffff;dashed=1;fixDash=1;dashPattern=6 5;strokeWidth=0.8;container=1;pointerEvents=0;collapsible=0;recursiveResize=0;lucidId=uYbBt86WluNI;" vertex="1" parent="1">
          <mxGeometry x="45" y="270" width="855" height="840" as="geometry" />
        </mxCell>
        <mxCell id="z3YErRY-nyT6ZwbpQ7DC-7" value="Availability Zone 1" style="html=1;overflow=block;blockSpacing=1;whiteSpace=wrap;fontSize=13;fontColor=#147eba;spacing=0;strokeColor=#147eba;strokeOpacity=100;fillOpacity=0;rounded=1;absoluteArcSize=1;arcSize=9;fillColor=#ffffff;dashed=1;fixDash=1;dashPattern=8 8;strokeWidth=0.8;container=1;pointerEvents=0;collapsible=0;recursiveResize=0;lucidId=5YbByePJvxZz;" vertex="1" parent="1">
          <mxGeometry x="45" y="330" width="404" height="765" as="geometry" />
        </mxCell>
        <mxCell id="z3YErRY-nyT6ZwbpQ7DC-8" value="Availability Zone 2" style="html=1;overflow=block;blockSpacing=1;whiteSpace=wrap;fontSize=13;fontColor=#147eba;spacing=0;strokeColor=#147eba;strokeOpacity=100;fillOpacity=0;rounded=1;absoluteArcSize=1;arcSize=9;fillColor=#ffffff;dashed=1;fixDash=1;dashPattern=8 8;strokeWidth=0.8;container=1;pointerEvents=0;collapsible=0;recursiveResize=0;lucidId=dZbBCdUF1-6k;" vertex="1" parent="1">
          <mxGeometry x="481" y="330" width="404" height="765" as="geometry" />
        </mxCell>
        <mxCell id="z3YErRY-nyT6ZwbpQ7DC-9" value="Public Subnet" style="html=1;overflow=block;blockSpacing=1;whiteSpace=wrap;fontSize=13;fontColor=#248814;spacing=0;strokeColor=none;strokeOpacity=100;fillOpacity=13;rounded=1;absoluteArcSize=1;arcSize=9;fillColor=#248814;strokeWidth=0;container=1;pointerEvents=0;collapsible=0;recursiveResize=0;lucidId=_ZbBj4ustVPb;" vertex="1" parent="1">
          <mxGeometry x="57" y="375" width="374" height="244" as="geometry" />
        </mxCell>
        <mxCell id="z3YErRY-nyT6ZwbpQ7DC-10" value="Private Subnet" style="html=1;overflow=block;blockSpacing=1;whiteSpace=wrap;fontSize=13;fontColor=#147eba;spacing=0;strokeColor=none;strokeOpacity=100;fillOpacity=13;rounded=1;absoluteArcSize=1;arcSize=9;fillColor=#147eba;strokeWidth=0;container=1;pointerEvents=0;collapsible=0;recursiveResize=0;lucidId=j0bBc5EJFdXg;" vertex="1" parent="1">
          <mxGeometry x="57" y="630" width="374" height="450" as="geometry" />
        </mxCell>
        <mxCell id="z3YErRY-nyT6ZwbpQ7DC-11" value="Public Subnet" style="html=1;overflow=block;blockSpacing=1;whiteSpace=wrap;fontSize=13;fontColor=#248814;spacing=0;strokeColor=none;strokeOpacity=100;fillOpacity=13;rounded=1;absoluteArcSize=1;arcSize=9;fillColor=#248814;strokeWidth=0;container=1;pointerEvents=0;collapsible=0;recursiveResize=0;lucidId=_3bBIvHX648U;" vertex="1" parent="1">
          <mxGeometry x="495" y="375" width="374" height="244" as="geometry" />
        </mxCell>
        <mxCell id="z3YErRY-nyT6ZwbpQ7DC-12" value="Private Subnet" style="html=1;overflow=block;blockSpacing=1;whiteSpace=wrap;fontSize=13;fontColor=#147eba;spacing=0;strokeColor=none;strokeOpacity=100;fillOpacity=13;rounded=1;absoluteArcSize=1;arcSize=9;fillColor=#147eba;strokeWidth=0;container=1;pointerEvents=0;collapsible=0;recursiveResize=0;lucidId=_3bBpP9uQHZQ;" vertex="1" parent="1">
          <mxGeometry x="496" y="630" width="374" height="450" as="geometry" />
        </mxCell>
        <mxCell id="z3YErRY-nyT6ZwbpQ7DC-13" value="AWS Fargate" style="html=1;overflow=block;blockSpacing=1;whiteSpace=wrap;fontSize=13;spacing=0;strokeColor=#3a414a;strokeOpacity=100;fillOpacity=100;rounded=1;absoluteArcSize=1;arcSize=9;fillColor=#c8511b;strokeWidth=0.8;lucidId=5WbBWCD4RKB0;" vertex="1" parent="1">
          <mxGeometry x="961" y="336" width="75" height="72" as="geometry" />
        </mxCell>
        <mxCell id="z3YErRY-nyT6ZwbpQ7DC-14" value="Elastic Load Balancing" style="html=1;overflow=block;blockSpacing=1;whiteSpace=wrap;fontSize=13;spacing=0;strokeColor=#3a414a;strokeOpacity=100;fillOpacity=100;rounded=1;absoluteArcSize=1;arcSize=9;fillColor=#4d27a8;strokeWidth=0.8;lucidId=5WbBG6ad~aNh;" vertex="1" parent="1">
          <mxGeometry x="1060" y="212" width="75" height="72" as="geometry" />
        </mxCell>
        <mxCell id="z3YErRY-nyT6ZwbpQ7DC-15" value="Simple Storage Service" style="html=1;overflow=block;blockSpacing=1;whiteSpace=wrap;fontSize=13;spacing=0;strokeColor=#3a414a;strokeOpacity=100;fillOpacity=100;rounded=1;absoluteArcSize=1;arcSize=9;fillColor=#1b660f;strokeWidth=0.8;lucidId=5WbBtd_xsjdI;" vertex="1" parent="1">
          <mxGeometry x="1060" y="336" width="75" height="72" as="geometry" />
        </mxCell>
        <mxCell id="z3YErRY-nyT6ZwbpQ7DC-16" value="Amazon RDS (SQLServer)" style="html=1;overflow=block;blockSpacing=1;whiteSpace=wrap;shape=mxgraph.aws4.resourceIcon;resIcon=mxgraph.aws4.rds;verticalLabelPosition=bottom;align=center;verticalAlign=top;strokeColor=#ffffff;pointerEvents=1;fontSize=16.7;fontColor=#3a414a;spacing=0;strokeOpacity=100;rounded=1;absoluteArcSize=1;arcSize=9;fillColor=#3b48cc;strokeWidth=0.8;lucidId=5WbBroMBgoN9;" vertex="1" parent="1">
          <mxGeometry x="1161" y="334" width="75" height="75" as="geometry" />
        </mxCell>
        <mxCell id="z3YErRY-nyT6ZwbpQ7DC-17" value="AWS WAF" style="html=1;overflow=block;blockSpacing=1;whiteSpace=wrap;fontSize=13;spacing=0;strokeColor=#3a414a;strokeOpacity=100;rounded=1;absoluteArcSize=1;arcSize=9;fillColor=#ffffff;strokeWidth=0.8;lucidId=5WbBvRjzmomD;" vertex="1" parent="1">
          <mxGeometry x="960" y="212" width="75" height="72" as="geometry" />
        </mxCell>
        <mxCell id="z3YErRY-nyT6ZwbpQ7DC-18" value="AWS Lambda" style="html=1;overflow=block;blockSpacing=1;whiteSpace=wrap;shape=mxgraph.aws4.resourceIcon;resIcon=mxgraph.aws4.lambda;verticalLabelPosition=bottom;align=center;verticalAlign=top;strokeColor=#ffffff;pointerEvents=1;fontSize=16.7;fontColor=#3a414a;spacing=0;strokeOpacity=100;rounded=1;absoluteArcSize=1;arcSize=9;fillColor=#d86613;strokeWidth=0.8;lucidId=5WbBeeL4.hmZ;" vertex="1" parent="1">
          <mxGeometry x="1161" y="210" width="75" height="75" as="geometry" />
        </mxCell>
        <mxCell id="z3YErRY-nyT6ZwbpQ7DC-19" value="Amazon API Gateway" style="html=1;overflow=block;blockSpacing=1;whiteSpace=wrap;shape=mxgraph.aws4.resourceIcon;resIcon=mxgraph.aws4.api_gateway;labelPosition=center;verticalLabelPosition=bottom;align=center;verticalAlign=top;strokeColor=#ffffff;pointerEvents=1;fontSize=16.7;fontColor=#3a414a;spacing=0;strokeOpacity=100;rounded=1;absoluteArcSize=1;arcSize=9;fillColor=#693cc5;strokeWidth=0.8;lucidId=5WbBp4aE3SbH;" vertex="1" parent="1">
          <mxGeometry x="1264" y="210" width="75" height="75" as="geometry" />
        </mxCell>
        <mxCell id="z3YErRY-nyT6ZwbpQ7DC-20" value="F" style="html=1;overflow=block;blockSpacing=1;whiteSpace=wrap;ellipse;fontSize=25;fontColor=#3a414a;fontStyle=1;spacing=3.8;strokeColor=#3a414a;strokeOpacity=100;fillOpacity=100;rounded=1;absoluteArcSize=1;arcSize=9;fillColor=#fc9432;strokeWidth=0.8;lucidId=5WbBqS41uD_f;" vertex="1" parent="1">
          <mxGeometry x="103" y="193" width="50" height="48" as="geometry" />
        </mxCell>
        <mxCell id="z3YErRY-nyT6ZwbpQ7DC-21" value="AWS Step Functions" style="html=1;overflow=block;blockSpacing=1;whiteSpace=wrap;shape=mxgraph.aws4.resourceIcon;resIcon=mxgraph.aws4.step_functions;labelPosition=center;verticalLabelPosition=bottom;align=center;verticalAlign=top;strokeColor=#ffffff;pointerEvents=1;fontSize=16.7;fontColor=#3a414a;spacing=0;strokeOpacity=100;rounded=1;absoluteArcSize=1;arcSize=9;fillColor=#cc2264;strokeWidth=0.8;lucidId=5WbB4heDFN-0;" vertex="1" parent="1">
          <mxGeometry x="1264" y="334" width="75" height="75" as="geometry" />
        </mxCell>
        <mxCell id="z3YErRY-nyT6ZwbpQ7DC-22" value="Amazon VPC" style="html=1;overflow=block;blockSpacing=1;whiteSpace=wrap;shape=mxgraph.aws4.resourceIcon;resIcon=mxgraph.aws4.vpc;labelPosition=center;verticalLabelPosition=bottom;align=center;verticalAlign=top;strokeColor=#ffffff;pointerEvents=1;fontSize=16.7;fontColor=#3a414a;spacing=0;strokeOpacity=100;rounded=1;absoluteArcSize=1;arcSize=9;fillColor=#693cc5;strokeWidth=0.8;lucidId=EXbB-V_lyqWy;" vertex="1" parent="1">
          <mxGeometry x="630" y="90" width="90" height="90" as="geometry" />
        </mxCell>
        <mxCell id="z3YErRY-nyT6ZwbpQ7DC-23" value="Amazon RDS (SQLServer)" style="html=1;overflow=block;blockSpacing=1;whiteSpace=wrap;shape=mxgraph.aws4.resourceIcon;resIcon=mxgraph.aws4.rds;verticalLabelPosition=bottom;align=center;verticalAlign=top;strokeColor=#ffffff;pointerEvents=1;fontSize=16.7;fontColor=#3a414a;spacing=0;strokeOpacity=100;rounded=1;absoluteArcSize=1;arcSize=9;fillColor=#3b48cc;strokeWidth=0.8;lucidId=e5bBSkHAboyP;" vertex="1" parent="1">
          <mxGeometry x="330" y="945" width="75" height="75" as="geometry" />
        </mxCell>
        <mxCell id="z3YErRY-nyT6ZwbpQ7DC-24" value="Amazon RDS (SQLServer)" style="html=1;overflow=block;blockSpacing=1;whiteSpace=wrap;shape=mxgraph.aws4.resourceIcon;resIcon=mxgraph.aws4.rds;verticalLabelPosition=bottom;align=center;verticalAlign=top;strokeColor=#ffffff;pointerEvents=1;fontSize=16.7;fontColor=#3a414a;spacing=0;strokeOpacity=100;rounded=1;absoluteArcSize=1;arcSize=9;fillColor=#3b48cc;strokeWidth=0.8;lucidId=n5bBy8Cdmylf;" vertex="1" parent="1">
          <mxGeometry x="510" y="945" width="75" height="75" as="geometry" />
        </mxCell>
      </root>
    </mxGraphModel>
  </diagram>
  <diagram id="iNHAbe-j4_2RJ_M6c_Yi" name="Agsteward">
    <mxGraphModel dx="2325" dy="3468" grid="1" gridSize="10" guides="1" tooltips="1" connect="1" arrows="1" fold="1" page="1" pageScale="1" pageWidth="827" pageHeight="1169" math="0" shadow="0">
      <root>
        <mxCell id="0" />
        <mxCell id="1" parent="0" />
        <mxCell id="jPYobP2dVr4acuuRDoqw-2" value="Common" style="overflow=block;blockSpacing=1;whiteSpace=wrap;aspect=fixed;html=1;points=[];align=center;verticalAlign=top;image;image=img/lib/mscae/ResourceGroup.svg;fontSize=13;spacing=0;strokeColor=#0e76d4;strokeOpacity=100;fillOpacity=0;fillColor=#ffffff;dashed=1;fixDash=1;strokeWidth=1.5;container=1;pointerEvents=0;collapsible=0;recursiveResize=0;lucidId=LZk6I6aRm1YF;" vertex="1" parent="1">
          <mxGeometry x="390" y="860" width="1479" height="211" as="geometry" />
        </mxCell>
        <mxCell id="jPYobP2dVr4acuuRDoqw-3" value="" style="html=1;jettySize=18;whiteSpace=wrap;fontSize=13;strokeColor=#333333;strokeOpacity=100;strokeWidth=0.8;rounded=0;startArrow=none;endArrow=none;lucidId=LZk6GFDInH-9;" edge="1" parent="1">
          <mxGeometry width="100" height="100" relative="1" as="geometry">
            <Array as="points" />
            <mxPoint x="150" y="120" as="sourcePoint" />
            <mxPoint x="150" y="120" as="targetPoint" />
          </mxGeometry>
        </mxCell>
        <mxCell id="jPYobP2dVr4acuuRDoqw-4" value="" style="html=1;jettySize=18;whiteSpace=wrap;fontSize=13;strokeColor=#333333;strokeOpacity=100;strokeWidth=0.8;rounded=0;startArrow=none;endArrow=none;lucidId=LZk6Ez-A8nF2;" edge="1" parent="1">
          <mxGeometry width="100" height="100" relative="1" as="geometry">
            <Array as="points" />
            <mxPoint x="139" y="97" as="sourcePoint" />
            <mxPoint x="139" y="97" as="targetPoint" />
          </mxGeometry>
        </mxCell>
        <mxCell id="jPYobP2dVr4acuuRDoqw-5" value="" style="html=1;jettySize=18;whiteSpace=wrap;fontSize=13;strokeColor=#333333;strokeOpacity=100;strokeWidth=0.8;rounded=0;startArrow=none;endArrow=none;lucidId=LZk69vuxjOTD;" edge="1" parent="1">
          <mxGeometry width="100" height="100" relative="1" as="geometry">
            <Array as="points" />
            <mxPoint x="139" y="97" as="sourcePoint" />
            <mxPoint x="139" y="97" as="targetPoint" />
          </mxGeometry>
        </mxCell>
        <mxCell id="jPYobP2dVr4acuuRDoqw-6" value="" style="html=1;jettySize=18;whiteSpace=wrap;fontSize=13;strokeColor=#333333;strokeOpacity=100;strokeWidth=0.8;rounded=0;startArrow=none;endArrow=none;lucidId=LZk6k1h0iRQj;" edge="1" parent="1">
          <mxGeometry width="100" height="100" relative="1" as="geometry">
            <Array as="points" />
            <mxPoint x="139" y="97" as="sourcePoint" />
            <mxPoint x="139" y="97" as="targetPoint" />
          </mxGeometry>
        </mxCell>
        <mxCell id="jPYobP2dVr4acuuRDoqw-7" value="" style="group;dropTarget=0;pointerEvents=0;" vertex="1" parent="1">
          <mxGeometry x="555" y="-90" width="893" height="60" as="geometry" />
        </mxCell>
        <UserObject label="%filename%" placeholders="1" id="jPYobP2dVr4acuuRDoqw-8">
          <mxCell style="points=[[0.239,0.967,0]];html=1;overflow=block;blockSpacing=1;whiteSpace=wrap;fontSize=19.7;fontColor=#a9afb8;fontStyle=1;align=center;spacingLeft=7;spacingRight=7;spacingTop=2;spacing=3;strokeOpacity=0;fillOpacity=0;rounded=1;absoluteArcSize=1;arcSize=12;fillColor=#ffffff;strokeWidth=1.5;lucidId=LZk626l~N97u;" vertex="1" parent="jPYobP2dVr4acuuRDoqw-7">
            <mxGeometry width="892" height="31" as="geometry" />
          </mxCell>
        </UserObject>
        <UserObject label="%creatorName%  |  %date{mmmm d, yyyy}%" placeholders="1" id="jPYobP2dVr4acuuRDoqw-9">
          <mxCell style="html=1;overflow=block;blockSpacing=1;whiteSpace=wrap;fontSize=11.5;fontColor=#a9afb8;align=center;spacingLeft=7;spacingRight=7;spacingTop=2;spacing=3;strokeOpacity=0;fillOpacity=0;rounded=1;absoluteArcSize=1;arcSize=12;fillColor=#ffffff;strokeWidth=1.5;lucidId=LZk6eJKTUE3W;" vertex="1" parent="jPYobP2dVr4acuuRDoqw-7">
            <mxGeometry y="46" width="893" height="14" as="geometry" />
          </mxCell>
        </UserObject>
        <mxCell id="jPYobP2dVr4acuuRDoqw-10" value="" style="html=1;jettySize=18;whiteSpace=wrap;fontSize=13;fontFamily=Helvetica;strokeColor=#a9afb8;strokeOpacity=100;strokeWidth=1.5;rounded=0;startArrow=none;endArrow=none;exitX=0.239;exitY=0.967;exitPerimeter=0;lucidId=LZk6inrphuu2;" edge="1" parent="jPYobP2dVr4acuuRDoqw-7" source="jPYobP2dVr4acuuRDoqw-8">
          <mxGeometry width="100" height="100" relative="1" as="geometry">
            <Array as="points" />
            <mxPoint x="683" y="30" as="targetPoint" />
          </mxGeometry>
        </mxCell>
        <mxCell id="jPYobP2dVr4acuuRDoqw-11" value="ACR - Docker Image" style="overflow=block;blockSpacing=1;whiteSpace=wrap;aspect=fixed;html=1;points=[];align=center;verticalAlign=top;image;image=img/lib/mscae/Container_Registries.svg;fontSize=13;spacing=0;strokeOpacity=100;fillColor=#59B4D9;strokeWidth=1.5;lucidId=LZk6f8gLPkpi;" vertex="1" parent="1">
          <mxGeometry x="450" y="975" width="60" height="51" as="geometry" />
        </mxCell>
        <mxCell id="jPYobP2dVr4acuuRDoqw-12" value="" style="html=1;overflow=block;blockSpacing=1;whiteSpace=wrap;shape=image;fontSize=13;spacing=3.8;strokeColor=none;strokeOpacity=100;strokeWidth=0;image=https://images.lucid.app/images/c4275139-8d87-425b-a24a-abbf15c79382/content;imageAspect=0;lucidId=LZk6wx9jV7RD;" vertex="1" parent="1">
          <mxGeometry x="390" y="78" width="119" height="67" as="geometry" />
        </mxCell>
        <mxCell id="jPYobP2dVr4acuuRDoqw-13" value="Blob Storage" style="overflow=block;blockSpacing=1;whiteSpace=wrap;aspect=fixed;html=1;points=[];align=center;verticalAlign=top;image;image=img/lib/mscae/Blog_Storage.svg;fontSize=13;spacing=0;strokeOpacity=100;fillColor=#59B4D9;strokeWidth=1.5;lucidId=LZk6z8cHCwot;" vertex="1" parent="1">
          <mxGeometry x="573" y="900" width="42" height="38" as="geometry" />
        </mxCell>
        <mxCell id="jPYobP2dVr4acuuRDoqw-14" value="Key Vaults" style="overflow=block;blockSpacing=1;whiteSpace=wrap;aspect=fixed;html=1;points=[];align=center;verticalAlign=top;image;image=img/lib/mscae/Key_Vaults.svg;fontSize=13;spacing=0;strokeOpacity=100;fillColor=#fcd116;strokeWidth=1.5;lucidId=LZk61YWRcrWv;" vertex="1" parent="1">
          <mxGeometry x="571" y="975" width="43" height="45" as="geometry" />
        </mxCell>
        <mxCell id="jPYobP2dVr4acuuRDoqw-15" value="" style="html=1;overflow=block;blockSpacing=1;whiteSpace=wrap;shape=image;fontSize=13;spacing=3.8;strokeColor=none;strokeOpacity=100;strokeWidth=0;image=https://images.lucid.app/images/10d17a15-c5a7-4a99-9632-b137fd47171c/content;imageAspect=0;lucidId=I1f7UzMSFFvZ;" vertex="1" parent="1">
          <mxGeometry x="691" y="63" width="81" height="79" as="geometry" />
        </mxCell>
        <mxCell id="jPYobP2dVr4acuuRDoqw-16" value="Production" style="html=1;overflow=block;blockSpacing=1;whiteSpace=wrap;fontSize=13;fontColor=default;align=left;spacing=0;verticalAlign=top;strokeColor=#d8d8d8;strokeOpacity=100;fillOpacity=100;rounded=1;absoluteArcSize=1;arcSize=3;fillColor=#f2f2f2;strokeWidth=3;container=1;pointerEvents=0;collapsible=0;recursiveResize=0;lucidId=kwg7YPUEpqvW;" vertex="1" parent="1">
          <mxGeometry x="1442" y="259" width="358" height="521" as="geometry" />
        </mxCell>
        <mxCell id="jPYobP2dVr4acuuRDoqw-17" value="Production Environment" style="overflow=block;blockSpacing=1;whiteSpace=wrap;aspect=fixed;html=1;points=[];align=center;verticalAlign=top;image;image=img/lib/mscae/ResourceGroup.svg;fontSize=13;spacing=0;strokeColor=#0e76d4;strokeOpacity=100;fillOpacity=0;fillColor=#ffffff;dashed=1;fixDash=1;strokeWidth=1.5;container=1;pointerEvents=0;collapsible=0;recursiveResize=0;lucidId=kwg7ujo8biKy;" vertex="1" parent="1">
          <mxGeometry x="1382" y="213" width="489" height="612" as="geometry" />
        </mxCell>
        <mxCell id="jPYobP2dVr4acuuRDoqw-18" value="Azure Database for PostgreSQL Servers" style="overflow=block;blockSpacing=1;whiteSpace=wrap;aspect=fixed;html=1;points=[];align=center;verticalAlign=top;image;image=img/lib/mscae/Azure_Database_for_PostgreSQL_servers.svg;fontSize=13;spacing=0;strokeOpacity=100;fillColor=#59b3d8;strokeWidth=1.5;lucidId=kwg7V2~ENhHv;" vertex="1" parent="1">
          <mxGeometry x="1601" y="411" width="44" height="58" as="geometry" />
        </mxCell>
        <mxCell id="jPYobP2dVr4acuuRDoqw-19" value="Blob Storage" style="overflow=block;blockSpacing=1;whiteSpace=wrap;aspect=fixed;html=1;points=[];align=center;verticalAlign=top;image;image=img/lib/mscae/Blog_Storage.svg;fontSize=13;spacing=0;strokeOpacity=100;fillColor=#59B4D9;strokeWidth=1.5;lucidId=kwg7FzEoKAn2;" vertex="1" parent="1">
          <mxGeometry x="1727" y="546" width="42" height="38" as="geometry" />
        </mxCell>
        <mxCell id="jPYobP2dVr4acuuRDoqw-20" value="Azure AD B2C&#xa;&amp;lt;Website&amp;gt;" style="overflow=block;blockSpacing=1;whiteSpace=wrap;aspect=fixed;html=1;points=[];align=center;verticalAlign=top;image;image=img/lib/mscae/Azure_AD_B2C.svg;fontSize=13;spacing=0;strokeOpacity=100;fillColor=#804998;strokeWidth=1.5;lucidId=kwg7ORvO~WUh;" vertex="1" parent="1">
          <mxGeometry x="1518" y="869" width="52" height="48" as="geometry" />
        </mxCell>
        <mxCell id="jPYobP2dVr4acuuRDoqw-21" value="Azure AD B2C (ProgramAdmin)" style="overflow=block;blockSpacing=1;whiteSpace=wrap;aspect=fixed;html=1;points=[];align=center;verticalAlign=top;image;image=img/lib/mscae/Azure_AD_B2C.svg;fontSize=13;spacing=0;strokeOpacity=100;fillColor=#804998;strokeWidth=1.5;lucidId=kwg7ksn9EaCm;" vertex="1" parent="1">
          <mxGeometry x="1770" y="869" width="52" height="48" as="geometry" />
        </mxCell>
        <mxCell id="jPYobP2dVr4acuuRDoqw-22" value="" style="html=1;overflow=block;blockSpacing=1;whiteSpace=wrap;shape=image;fontSize=13;spacing=3.8;strokeColor=none;strokeOpacity=100;strokeWidth=0;image=https://images.lucid.app/images/6ff4ecce-8b96-446a-8c2e-1dea72d64ae5/content;lucidId=kwg7SwE42Qpi;" vertex="1" parent="1">
          <mxGeometry x="1680" y="1108" width="48" height="48" as="geometry" />
        </mxCell>
        <mxCell id="jPYobP2dVr4acuuRDoqw-23" value="" style="html=1;overflow=block;blockSpacing=1;whiteSpace=wrap;shape=image;fontSize=13;spacing=3.8;strokeColor=none;strokeOpacity=100;strokeWidth=0;image=https://images.lucid.app/images/6ff4ecce-8b96-446a-8c2e-1dea72d64ae5/content;lucidId=kwg709z6eb-I;" vertex="1" parent="1">
          <mxGeometry x="1500" y="1108" width="48" height="48" as="geometry" />
        </mxCell>
        <mxCell id="jPYobP2dVr4acuuRDoqw-24" value="Application Insights" style="overflow=block;blockSpacing=1;whiteSpace=wrap;aspect=fixed;html=1;points=[];align=center;verticalAlign=top;image;image=img/lib/mscae/Application_Insights.svg;fontSize=13;spacing=0;strokeOpacity=100;fillColor=#68217a;strokeWidth=1.5;lucidId=kwg7zyPaGSv6;" vertex="1" parent="1">
          <mxGeometry x="1475" y="411" width="44" height="68" as="geometry" />
        </mxCell>
        <mxCell id="jPYobP2dVr4acuuRDoqw-25" value="Application Insights" style="overflow=block;blockSpacing=1;whiteSpace=wrap;aspect=fixed;html=1;points=[];align=center;verticalAlign=top;image;image=img/lib/mscae/Application_Insights.svg;fontSize=13;spacing=0;strokeOpacity=100;fillColor=#68217a;strokeWidth=1.5;lucidId=kwg7D7._dU3h;" vertex="1" parent="1">
          <mxGeometry x="1727" y="411" width="44" height="68" as="geometry" />
        </mxCell>
        <mxCell id="jPYobP2dVr4acuuRDoqw-26" value="Blob Storage" style="overflow=block;blockSpacing=1;whiteSpace=wrap;aspect=fixed;html=1;points=[];align=center;verticalAlign=top;image;image=img/lib/mscae/Blog_Storage.svg;fontSize=13;spacing=0;strokeOpacity=100;fillColor=#59B4D9;strokeWidth=1.5;lucidId=kwg73bNZCp7y;" vertex="1" parent="1">
          <mxGeometry x="1475" y="546" width="42" height="38" as="geometry" />
        </mxCell>
        <mxCell id="jPYobP2dVr4acuuRDoqw-27" value="" style="html=1;jettySize=18;whiteSpace=wrap;fontSize=13;strokeColor=#3a414a;strokeOpacity=100;strokeWidth=0.8;rounded=1;arcSize=12;curved=1;startArrow=none;endArrow=block;endFill=1;exitX=0.5;exitY=0.071;exitPerimeter=0;lucidId=kwg7lnx~aHUW;" edge="1" parent="1" source="jPYobP2dVr4acuuRDoqw-23">
          <mxGeometry width="100" height="100" relative="1" as="geometry">
            <Array as="points">
              <mxPoint x="1524" y="924" />
              <mxPoint x="1308" y="368" />
            </Array>
            <mxPoint x="1495" y="555" as="targetPoint" />
          </mxGeometry>
        </mxCell>
        <mxCell id="jPYobP2dVr4acuuRDoqw-28" value="" style="html=1;jettySize=18;whiteSpace=wrap;fontSize=13;strokeColor=#3a414a;strokeOpacity=100;strokeWidth=0.8;rounded=1;arcSize=12;curved=1;startArrow=none;endArrow=block;endFill=1;exitX=0.5;exitY=0.071;exitPerimeter=0;entryX=0.5;entryY=1.008;entryPerimeter=0;lucidId=kwg7-FXVzHHq;" edge="1" parent="1" source="jPYobP2dVr4acuuRDoqw-22" target="jPYobP2dVr4acuuRDoqw-84">
          <mxGeometry width="100" height="100" relative="1" as="geometry">
            <Array as="points">
              <mxPoint x="1704" y="924" />
              <mxPoint x="1743" y="915" />
            </Array>
          </mxGeometry>
        </mxCell>
        <mxCell id="jPYobP2dVr4acuuRDoqw-29" value="" style="html=1;overflow=block;blockSpacing=1;whiteSpace=wrap;shape=image;fontSize=13;spacing=3.8;strokeColor=none;strokeOpacity=100;strokeWidth=0;image=https://images.lucid.app/images/f5a62e7a-fd2d-42f9-8544-d59201a1f2d5/content;lucidId=rgh7IbnOMOH9;" vertex="1" parent="1">
          <mxGeometry x="555" y="63" width="86" height="86" as="geometry" />
        </mxCell>
        <mxCell id="jPYobP2dVr4acuuRDoqw-30" value="Log Analytics Workspaces" style="overflow=block;blockSpacing=1;whiteSpace=wrap;aspect=fixed;html=1;points=[];align=center;verticalAlign=top;image;image=img/lib/mscae/Log_Analytics_Workspaces.svg;fontSize=13;spacing=0;strokeOpacity=100;fillColor=#0072C6;strokeWidth=1.5;lucidId=kwg7k3KilReE;" vertex="1" parent="1">
          <mxGeometry x="1595" y="276" width="64" height="64" as="geometry" />
        </mxCell>
        <mxCell id="jPYobP2dVr4acuuRDoqw-31" value="Test" style="html=1;overflow=block;blockSpacing=1;whiteSpace=wrap;fontSize=13;fontColor=default;align=left;spacing=0;verticalAlign=top;strokeColor=#d8d8d8;strokeOpacity=100;fillOpacity=100;rounded=1;absoluteArcSize=1;arcSize=3;fillColor=#f2f2f2;strokeWidth=3;container=1;pointerEvents=0;collapsible=0;recursiveResize=0;lucidId=CRx7t5XabMXg;" vertex="1" parent="1">
          <mxGeometry x="928" y="260" width="373" height="520" as="geometry" />
        </mxCell>
        <mxCell id="jPYobP2dVr4acuuRDoqw-32" value="Test Environment" style="overflow=block;blockSpacing=1;whiteSpace=wrap;aspect=fixed;html=1;points=[];align=center;verticalAlign=top;image;image=img/lib/mscae/ResourceGroup.svg;fontSize=13;spacing=0;strokeColor=#0e76d4;strokeOpacity=100;fillOpacity=0;fillColor=#ffffff;dashed=1;fixDash=1;strokeWidth=1.5;container=1;pointerEvents=0;collapsible=0;recursiveResize=0;lucidId=CRx7n726vs3v;" vertex="1" parent="1">
          <mxGeometry x="890" y="213" width="471" height="612" as="geometry" />
        </mxCell>
        <mxCell id="jPYobP2dVr4acuuRDoqw-33" value="Azure Database for PostgreSQL Servers" style="overflow=block;blockSpacing=1;whiteSpace=wrap;aspect=fixed;html=1;points=[];align=center;verticalAlign=top;image;image=img/lib/mscae/Azure_Database_for_PostgreSQL_servers.svg;fontSize=13;spacing=0;strokeOpacity=100;fillColor=#59b3d8;strokeWidth=1.5;lucidId=CRx7.qneX~Ny;" vertex="1" parent="1">
          <mxGeometry x="1091" y="417" width="44" height="58" as="geometry" />
        </mxCell>
        <mxCell id="jPYobP2dVr4acuuRDoqw-34" value="Blob Storage" style="overflow=block;blockSpacing=1;whiteSpace=wrap;aspect=fixed;html=1;points=[];align=center;verticalAlign=top;image;image=img/lib/mscae/Blog_Storage.svg;fontSize=13;spacing=0;strokeOpacity=100;fillColor=#59B4D9;strokeWidth=1.5;lucidId=CRx7jgnR3q6O;" vertex="1" parent="1">
          <mxGeometry x="1217" y="546" width="42" height="38" as="geometry" />
        </mxCell>
        <mxCell id="jPYobP2dVr4acuuRDoqw-35" value="" style="html=1;overflow=block;blockSpacing=1;whiteSpace=wrap;shape=image;fontSize=13;spacing=3.8;strokeColor=none;strokeOpacity=100;strokeWidth=0;image=https://images.lucid.app/images/6ff4ecce-8b96-446a-8c2e-1dea72d64ae5/content;lucidId=CRx7xn-bK4hV;" vertex="1" parent="1">
          <mxGeometry x="1171" y="1108" width="48" height="48" as="geometry" />
        </mxCell>
        <mxCell id="jPYobP2dVr4acuuRDoqw-36" value="" style="html=1;overflow=block;blockSpacing=1;whiteSpace=wrap;shape=image;fontSize=13;spacing=3.8;strokeColor=none;strokeOpacity=100;strokeWidth=0;image=https://images.lucid.app/images/6ff4ecce-8b96-446a-8c2e-1dea72d64ae5/content;lucidId=CRx7ZtTdx61z;" vertex="1" parent="1">
          <mxGeometry x="991" y="1108" width="48" height="48" as="geometry" />
        </mxCell>
        <mxCell id="jPYobP2dVr4acuuRDoqw-37" value="Application Insights" style="overflow=block;blockSpacing=1;whiteSpace=wrap;aspect=fixed;html=1;points=[];align=center;verticalAlign=top;image;image=img/lib/mscae/Application_Insights.svg;fontSize=13;spacing=0;strokeOpacity=100;fillColor=#68217a;strokeWidth=1.5;lucidId=CRx7pYJMwM2L;" vertex="1" parent="1">
          <mxGeometry x="965" y="411" width="44" height="68" as="geometry" />
        </mxCell>
        <mxCell id="jPYobP2dVr4acuuRDoqw-38" value="Application Insights" style="overflow=block;blockSpacing=1;whiteSpace=wrap;aspect=fixed;html=1;points=[];align=center;verticalAlign=top;image;image=img/lib/mscae/Application_Insights.svg;fontSize=13;spacing=0;strokeOpacity=100;fillColor=#68217a;strokeWidth=1.5;lucidId=CRx7eGfyBFoI;" vertex="1" parent="1">
          <mxGeometry x="1217" y="411" width="44" height="68" as="geometry" />
        </mxCell>
        <mxCell id="jPYobP2dVr4acuuRDoqw-39" value="Blob Storage" style="overflow=block;blockSpacing=1;whiteSpace=wrap;aspect=fixed;html=1;points=[];align=center;verticalAlign=top;image;image=img/lib/mscae/Blog_Storage.svg;fontSize=13;spacing=0;strokeOpacity=100;fillColor=#59B4D9;strokeWidth=1.5;lucidId=CRx7kIamcGYc;" vertex="1" parent="1">
          <mxGeometry x="965" y="546" width="42" height="38" as="geometry" />
        </mxCell>
        <mxCell id="jPYobP2dVr4acuuRDoqw-40" value="" style="html=1;jettySize=18;whiteSpace=wrap;fontSize=13;strokeColor=#3a414a;strokeOpacity=100;strokeWidth=0.8;rounded=1;arcSize=12;curved=1;startArrow=none;endArrow=block;endFill=1;exitX=0.5;exitY=0.071;exitPerimeter=0;lucidId=CRx78exkCsVg;" edge="1" parent="1" source="jPYobP2dVr4acuuRDoqw-36">
          <mxGeometry width="100" height="100" relative="1" as="geometry">
            <Array as="points">
              <mxPoint x="1015" y="924" />
              <mxPoint x="800" y="368" />
            </Array>
            <mxPoint x="987" y="555" as="targetPoint" />
          </mxGeometry>
        </mxCell>
        <mxCell id="jPYobP2dVr4acuuRDoqw-41" value="" style="html=1;jettySize=18;whiteSpace=wrap;fontSize=13;strokeColor=#3a414a;strokeOpacity=100;strokeWidth=0.8;rounded=1;arcSize=12;curved=1;startArrow=none;endArrow=block;endFill=1;exitX=0.5;exitY=0.071;exitPerimeter=0;lucidId=CRx7jasHLQo2;" edge="1" parent="1" source="jPYobP2dVr4acuuRDoqw-35">
          <mxGeometry width="100" height="100" relative="1" as="geometry">
            <Array as="points">
              <mxPoint x="1195" y="924" />
              <mxPoint x="1050" y="368" />
            </Array>
            <mxPoint x="1238" y="555" as="targetPoint" />
          </mxGeometry>
        </mxCell>
        <mxCell id="jPYobP2dVr4acuuRDoqw-42" value="Log Analytics Workspaces" style="overflow=block;blockSpacing=1;whiteSpace=wrap;aspect=fixed;html=1;points=[];align=center;verticalAlign=top;image;image=img/lib/mscae/Log_Analytics_Workspaces.svg;fontSize=13;spacing=0;strokeOpacity=100;fillColor=#0072C6;strokeWidth=1.5;lucidId=CRx7OWUwcT-V;" vertex="1" parent="1">
          <mxGeometry x="1085" y="276" width="64" height="64" as="geometry" />
        </mxCell>
        <mxCell id="jPYobP2dVr4acuuRDoqw-43" value="Dev" style="html=1;overflow=block;blockSpacing=1;whiteSpace=wrap;fontSize=13;fontColor=default;align=left;spacing=0;verticalAlign=top;strokeColor=#d8d8d8;strokeOpacity=100;fillOpacity=100;rounded=1;absoluteArcSize=1;arcSize=3;fillColor=#f2f2f2;strokeWidth=3;container=1;pointerEvents=0;collapsible=0;recursiveResize=0;lucidId=zVx7tGIBkdNA;" vertex="1" parent="1">
          <mxGeometry x="426" y="259" width="377" height="521" as="geometry" />
        </mxCell>
        <mxCell id="jPYobP2dVr4acuuRDoqw-44" value="Dev Environment" style="overflow=block;blockSpacing=1;whiteSpace=wrap;aspect=fixed;html=1;points=[];align=center;verticalAlign=top;image;image=img/lib/mscae/ResourceGroup.svg;fontSize=13;spacing=0;strokeColor=#0e76d4;strokeOpacity=100;fillOpacity=0;fillColor=#ffffff;dashed=1;fixDash=1;strokeWidth=1.5;container=1;pointerEvents=0;collapsible=0;recursiveResize=0;lucidId=zVx7Hg-DzNiD;" vertex="1" parent="1">
          <mxGeometry x="387" y="213" width="473" height="616" as="geometry" />
        </mxCell>
        <mxCell id="jPYobP2dVr4acuuRDoqw-45" value="Azure Database for PostgreSQL Servers" style="overflow=block;blockSpacing=1;whiteSpace=wrap;aspect=fixed;html=1;points=[];align=center;verticalAlign=top;image;image=img/lib/mscae/Azure_Database_for_PostgreSQL_servers.svg;fontSize=13;spacing=0;strokeOpacity=100;fillColor=#59b3d8;strokeWidth=1.5;lucidId=zVx71I2R5HQc;" vertex="1" parent="1">
          <mxGeometry x="594" y="411" width="44" height="58" as="geometry" />
        </mxCell>
        <mxCell id="jPYobP2dVr4acuuRDoqw-46" value="Blob Storage" style="overflow=block;blockSpacing=1;whiteSpace=wrap;aspect=fixed;html=1;points=[];align=center;verticalAlign=top;image;image=img/lib/mscae/Blog_Storage.svg;fontSize=13;spacing=0;strokeOpacity=100;fillColor=#59B4D9;strokeWidth=1.5;lucidId=zVx7LFROrgcV;" vertex="1" parent="1">
          <mxGeometry x="716" y="546" width="42" height="38" as="geometry" />
        </mxCell>
        <mxCell id="jPYobP2dVr4acuuRDoqw-47" value="Azure AD B2C&#xa;&amp;lt;Website&amp;gt;" style="overflow=block;blockSpacing=1;whiteSpace=wrap;aspect=fixed;html=1;points=[];align=center;verticalAlign=top;image;image=img/lib/mscae/Azure_AD_B2C.svg;fontSize=13;spacing=0;strokeOpacity=100;fillColor=#804998;strokeWidth=1.5;lucidId=zVx7rmGbe.DN;" vertex="1" parent="1">
          <mxGeometry x="791" y="870" width="52" height="48" as="geometry" />
        </mxCell>
        <mxCell id="jPYobP2dVr4acuuRDoqw-48" value="Azure AD B2C (ProgramAdmin)" style="overflow=block;blockSpacing=1;whiteSpace=wrap;aspect=fixed;html=1;points=[];align=center;verticalAlign=top;image;image=img/lib/mscae/Azure_AD_B2C.svg;fontSize=13;spacing=0;strokeOpacity=100;fillColor=#804998;strokeWidth=1.5;lucidId=zVx7YrtJhA6V;" vertex="1" parent="1">
          <mxGeometry x="932" y="869" width="52" height="48" as="geometry" />
        </mxCell>
        <mxCell id="jPYobP2dVr4acuuRDoqw-49" value="" style="html=1;overflow=block;blockSpacing=1;whiteSpace=wrap;shape=image;fontSize=13;spacing=3.8;strokeColor=none;strokeOpacity=100;strokeWidth=0;image=https://images.lucid.app/images/6ff4ecce-8b96-446a-8c2e-1dea72d64ae5/content;lucidId=zVx7IWwI5nO4;" vertex="1" parent="1">
          <mxGeometry x="839" y="1108" width="48" height="48" as="geometry" />
        </mxCell>
        <mxCell id="jPYobP2dVr4acuuRDoqw-50" value="" style="html=1;overflow=block;blockSpacing=1;whiteSpace=wrap;shape=image;fontSize=13;spacing=3.8;strokeColor=none;strokeOpacity=100;strokeWidth=0;image=https://images.lucid.app/images/6ff4ecce-8b96-446a-8c2e-1dea72d64ae5/content;lucidId=zVx72IdF67pI;" vertex="1" parent="1">
          <mxGeometry x="660" y="1108" width="48" height="48" as="geometry" />
        </mxCell>
        <mxCell id="jPYobP2dVr4acuuRDoqw-51" value="Application Insights" style="overflow=block;blockSpacing=1;whiteSpace=wrap;aspect=fixed;html=1;points=[];align=center;verticalAlign=top;image;image=img/lib/mscae/Application_Insights.svg;fontSize=13;spacing=0;strokeOpacity=100;fillColor=#68217a;strokeWidth=1.5;lucidId=zVx7hyDlQu7I;" vertex="1" parent="1">
          <mxGeometry x="464" y="411" width="44" height="68" as="geometry" />
        </mxCell>
        <mxCell id="jPYobP2dVr4acuuRDoqw-52" value="Application Insights" style="overflow=block;blockSpacing=1;whiteSpace=wrap;aspect=fixed;html=1;points=[];align=center;verticalAlign=top;image;image=img/lib/mscae/Application_Insights.svg;fontSize=13;spacing=0;strokeOpacity=100;fillColor=#68217a;strokeWidth=1.5;lucidId=zVx7KS5P6m7~;" vertex="1" parent="1">
          <mxGeometry x="716" y="411" width="44" height="68" as="geometry" />
        </mxCell>
        <mxCell id="jPYobP2dVr4acuuRDoqw-53" value="Blob Storage" style="overflow=block;blockSpacing=1;whiteSpace=wrap;aspect=fixed;html=1;points=[];align=center;verticalAlign=top;image;image=img/lib/mscae/Blog_Storage.svg;fontSize=13;spacing=0;strokeOpacity=100;fillColor=#59B4D9;strokeWidth=1.5;lucidId=zVx7gDygmZD.;" vertex="1" parent="1">
          <mxGeometry x="464" y="546" width="42" height="38" as="geometry" />
        </mxCell>
        <mxCell id="jPYobP2dVr4acuuRDoqw-54" value="" style="html=1;jettySize=18;whiteSpace=wrap;fontSize=13;strokeColor=#3a414a;strokeOpacity=100;strokeWidth=0.8;rounded=1;arcSize=12;curved=1;startArrow=none;endArrow=block;endFill=1;exitX=0.5;exitY=0.071;exitPerimeter=0;entryX=0.5;entryY=1.006;entryPerimeter=0;lucidId=zVx7tjMj6meb;" edge="1" parent="1" source="jPYobP2dVr4acuuRDoqw-50" target="jPYobP2dVr4acuuRDoqw-68">
          <mxGeometry width="100" height="100" relative="1" as="geometry">
            <Array as="points">
              <mxPoint x="684" y="924" />
              <mxPoint x="486" y="928" />
            </Array>
          </mxGeometry>
        </mxCell>
        <mxCell id="jPYobP2dVr4acuuRDoqw-55" value="" style="html=1;jettySize=18;whiteSpace=wrap;fontSize=13;strokeColor=#3a414a;strokeOpacity=100;strokeWidth=0.8;rounded=1;arcSize=12;curved=1;startArrow=none;endArrow=block;endFill=1;exitX=0.5;exitY=0.071;exitPerimeter=0;entryX=0.5;entryY=1.006;entryPerimeter=0;lucidId=zVx7Si2EMt-A;" edge="1" parent="1" source="jPYobP2dVr4acuuRDoqw-49" target="jPYobP2dVr4acuuRDoqw-91">
          <mxGeometry width="100" height="100" relative="1" as="geometry">
            <Array as="points">
              <mxPoint x="863" y="924" />
              <mxPoint x="727" y="917" />
            </Array>
          </mxGeometry>
        </mxCell>
        <mxCell id="jPYobP2dVr4acuuRDoqw-56" value="Log Analytics Workspaces" style="overflow=block;blockSpacing=1;whiteSpace=wrap;aspect=fixed;html=1;points=[];align=center;verticalAlign=top;image;image=img/lib/mscae/Log_Analytics_Workspaces.svg;fontSize=13;spacing=0;strokeOpacity=100;fillColor=#0072C6;strokeWidth=1.5;lucidId=zVx7KV3m_vNf;" vertex="1" parent="1">
          <mxGeometry x="584" y="276" width="64" height="64" as="geometry" />
        </mxCell>
        <mxCell id="jPYobP2dVr4acuuRDoqw-57" value="SendGrid Accounts" style="overflow=block;blockSpacing=1;whiteSpace=wrap;aspect=fixed;html=1;points=[];align=center;verticalAlign=top;image;image=img/lib/mscae/SendGrid_Accounts.svg;fontSize=13;spacing=0;strokeColor=#3a414a;strokeOpacity=100;rounded=1;absoluteArcSize=1;arcSize=9;fillColor=#59b4d9;strokeWidth=0.8;lucidId=42.74GT-zkhC;" vertex="1" parent="1">
          <mxGeometry x="1159" y="60" width="71" height="71" as="geometry" />
        </mxCell>
        <mxCell id="jPYobP2dVr4acuuRDoqw-58" value="Key Vaults" style="overflow=block;blockSpacing=1;whiteSpace=wrap;aspect=fixed;html=1;points=[];align=center;verticalAlign=top;image;image=img/lib/mscae/Key_Vaults.svg;fontSize=13;spacing=0;strokeOpacity=100;fillColor=#fcd116;strokeWidth=1.5;lucidId=f.5gwyoUSBVS;" vertex="1" parent="1">
          <mxGeometry x="595" y="571" width="43" height="45" as="geometry" />
        </mxCell>
        <mxCell id="jPYobP2dVr4acuuRDoqw-59" value="Key Vaults" style="overflow=block;blockSpacing=1;whiteSpace=wrap;aspect=fixed;html=1;points=[];align=center;verticalAlign=top;image;image=img/lib/mscae/Key_Vaults.svg;fontSize=13;spacing=0;strokeOpacity=100;fillColor=#fcd116;strokeWidth=1.5;lucidId=k.5gXpdVOIKR;" vertex="1" parent="1">
          <mxGeometry x="1091" y="572" width="43" height="45" as="geometry" />
        </mxCell>
        <mxCell id="jPYobP2dVr4acuuRDoqw-60" value="Key Vaults" style="overflow=block;blockSpacing=1;whiteSpace=wrap;aspect=fixed;html=1;points=[];align=center;verticalAlign=top;image;image=img/lib/mscae/Key_Vaults.svg;fontSize=13;spacing=0;strokeOpacity=100;fillColor=#fcd116;strokeWidth=1.5;lucidId=q.5gPATiRNRd;" vertex="1" parent="1">
          <mxGeometry x="1600" y="571" width="43" height="45" as="geometry" />
        </mxCell>
        <mxCell id="jPYobP2dVr4acuuRDoqw-61" value="Developer/QA" style="html=1;overflow=block;blockSpacing=1;whiteSpace=wrap;fontSize=16.7;fontColor=#3a414a;spacing=3.8;strokeOpacity=0;fillOpacity=0;rounded=1;absoluteArcSize=1;arcSize=9;fillColor=#ffffff;strokeWidth=0.8;lucidId=gxGw678isz2K;" vertex="1" parent="1">
          <mxGeometry x="594" y="1165" width="180" height="48" as="geometry" />
        </mxCell>
        <mxCell id="jPYobP2dVr4acuuRDoqw-62" value="&lt;div style=&quot;display: flex; justify-content: center; text-align: center; align-items: baseline; font-size: 0; line-height: 1.25;margin-top: -2px;&quot;&gt;&lt;span&gt;&lt;span style=&quot;font-size:15px;color:#000000;&quot;&gt;Developer/QA &lt;/span&gt;&lt;span style=&quot;font-size:16.7px;color:#3a414a;&quot;&gt;Admin&lt;/span&gt;&lt;/span&gt;&lt;/div&gt;" style="html=1;overflow=block;blockSpacing=1;whiteSpace=wrap;fontSize=13;spacing=3.8;strokeOpacity=0;fillOpacity=0;rounded=1;absoluteArcSize=1;arcSize=9;fillColor=#ffffff;strokeWidth=0.8;lucidId=CxGwayOElfQe;" vertex="1" parent="1">
          <mxGeometry x="773" y="1165" width="180" height="48" as="geometry" />
        </mxCell>
        <mxCell id="jPYobP2dVr4acuuRDoqw-63" value="UAT user" style="html=1;overflow=block;blockSpacing=1;whiteSpace=wrap;fontSize=15;fontColor=default;spacing=3.8;strokeOpacity=0;fillOpacity=0;rounded=1;absoluteArcSize=1;arcSize=9;fillColor=#ffffff;strokeWidth=0.8;lucidId=XxGwf9H8~BC7;" vertex="1" parent="1">
          <mxGeometry x="938" y="1165" width="157" height="48" as="geometry" />
        </mxCell>
        <mxCell id="jPYobP2dVr4acuuRDoqw-64" value="UAT admin user" style="html=1;overflow=block;blockSpacing=1;whiteSpace=wrap;fontSize=15;fontColor=default;spacing=3.8;strokeOpacity=0;fillOpacity=0;rounded=1;absoluteArcSize=1;arcSize=9;fillColor=#ffffff;strokeWidth=0.8;lucidId=4xGwyajAQlcG;" vertex="1" parent="1">
          <mxGeometry x="1109" y="1167" width="180" height="45" as="geometry" />
        </mxCell>
        <mxCell id="jPYobP2dVr4acuuRDoqw-65" value="Public user" style="html=1;overflow=block;blockSpacing=1;whiteSpace=wrap;fontSize=15;fontColor=default;spacing=3.8;strokeOpacity=0;fillOpacity=0;rounded=1;absoluteArcSize=1;arcSize=9;fillColor=#ffffff;strokeWidth=0.8;lucidId=.xGwkpg-wzzF;" vertex="1" parent="1">
          <mxGeometry x="1434" y="1167" width="180" height="45" as="geometry" />
        </mxCell>
        <mxCell id="jPYobP2dVr4acuuRDoqw-66" value="DCCEEW admin" style="html=1;overflow=block;blockSpacing=1;whiteSpace=wrap;fontSize=15;fontColor=default;spacing=3.8;strokeOpacity=0;fillOpacity=0;rounded=1;absoluteArcSize=1;arcSize=9;fillColor=#ffffff;strokeWidth=0.8;lucidId=fyGw9SV530d~;" vertex="1" parent="1">
          <mxGeometry x="1613" y="1167" width="180" height="45" as="geometry" />
        </mxCell>
        <mxCell id="jPYobP2dVr4acuuRDoqw-67" value="" style="group;dropTarget=0;pointerEvents=0;" vertex="1" parent="1">
          <mxGeometry x="378" y="648" width="180" height="91" as="geometry" />
        </mxCell>
        <mxCell id="jPYobP2dVr4acuuRDoqw-68" value="" style="html=1;overflow=block;blockSpacing=1;whiteSpace=wrap;fontSize=13;spacing=3.8;strokeColor=#3a414a;strokeOpacity=100;fillOpacity=100;rounded=1;absoluteArcSize=1;arcSize=9;fillColor=#dfe3e8;strokeWidth=0.8;lucidId=IQHwdv8i5eZT;" vertex="1" parent="jPYobP2dVr4acuuRDoqw-67">
          <mxGeometry x="62" y="31" width="92" height="60" as="geometry" />
        </mxCell>
        <mxCell id="jPYobP2dVr4acuuRDoqw-69" value="Rest APIs (.Net)" style="html=1;overflow=block;blockSpacing=1;whiteSpace=wrap;fontSize=8.3;fontColor=#3a414a;spacing=3.8;strokeColor=#3a414a;strokeOpacity=100;fillOpacity=100;rounded=1;absoluteArcSize=1;arcSize=9;fillColor=#dfe3e8;strokeWidth=0.8;lucidId=FFHwUSJ7P6qz;" vertex="1" parent="jPYobP2dVr4acuuRDoqw-67">
          <mxGeometry x="65" y="40" width="85" height="21" as="geometry" />
        </mxCell>
        <mxCell id="jPYobP2dVr4acuuRDoqw-70" value="UI (React)" style="html=1;overflow=block;blockSpacing=1;whiteSpace=wrap;fontSize=8.3;fontColor=#3a414a;spacing=3.8;strokeColor=#3a414a;strokeOpacity=100;fillOpacity=100;rounded=1;absoluteArcSize=1;arcSize=9;fillColor=#dfe3e8;strokeWidth=0.8;lucidId=BQHw0tDxHjO2;" vertex="1" parent="jPYobP2dVr4acuuRDoqw-67">
          <mxGeometry x="65" y="66" width="85" height="21" as="geometry" />
        </mxCell>
        <mxCell id="jPYobP2dVr4acuuRDoqw-71" value="Website" style="html=1;overflow=block;blockSpacing=1;whiteSpace=wrap;fontSize=16.7;fontColor=#3a414a;spacing=3.8;strokeOpacity=0;fillOpacity=0;rounded=1;absoluteArcSize=1;arcSize=9;fillColor=#ffffff;strokeWidth=0.8;lucidId=0SHwn3RofiJa;" vertex="1" parent="jPYobP2dVr4acuuRDoqw-67">
          <mxGeometry width="180" height="45" as="geometry" />
        </mxCell>
        <mxCell id="jPYobP2dVr4acuuRDoqw-72" value="" style="group;dropTarget=0;pointerEvents=0;" vertex="1" parent="1">
          <mxGeometry x="886" y="644" width="180" height="91" as="geometry" />
        </mxCell>
        <mxCell id="jPYobP2dVr4acuuRDoqw-73" value="" style="html=1;overflow=block;blockSpacing=1;whiteSpace=wrap;fontSize=13;spacing=3.8;strokeColor=#3a414a;strokeOpacity=100;fillOpacity=100;rounded=1;absoluteArcSize=1;arcSize=9;fillColor=#dfe3e8;strokeWidth=0.8;lucidId=nTHwS25vhmGJ;" vertex="1" parent="jPYobP2dVr4acuuRDoqw-72">
          <mxGeometry x="61" y="31" width="92" height="60" as="geometry" />
        </mxCell>
        <mxCell id="jPYobP2dVr4acuuRDoqw-74" value="Rest APIs (.Net)" style="html=1;overflow=block;blockSpacing=1;whiteSpace=wrap;fontSize=8.3;fontColor=#3a414a;spacing=3.8;strokeColor=#3a414a;strokeOpacity=100;fillOpacity=100;rounded=1;absoluteArcSize=1;arcSize=9;fillColor=#dfe3e8;strokeWidth=0.8;lucidId=nTHwGhImjZzN;" vertex="1" parent="jPYobP2dVr4acuuRDoqw-72">
          <mxGeometry x="65" y="39" width="85" height="21" as="geometry" />
        </mxCell>
        <mxCell id="jPYobP2dVr4acuuRDoqw-75" value="UI (React)" style="html=1;overflow=block;blockSpacing=1;whiteSpace=wrap;fontSize=8.3;fontColor=#3a414a;spacing=3.8;strokeColor=#3a414a;strokeOpacity=100;fillOpacity=100;rounded=1;absoluteArcSize=1;arcSize=9;fillColor=#dfe3e8;strokeWidth=0.8;lucidId=nTHwXRyr46ee;" vertex="1" parent="jPYobP2dVr4acuuRDoqw-72">
          <mxGeometry x="65" y="66" width="85" height="21" as="geometry" />
        </mxCell>
        <mxCell id="jPYobP2dVr4acuuRDoqw-76" value="Website" style="html=1;overflow=block;blockSpacing=1;whiteSpace=wrap;fontSize=16.7;fontColor=#3a414a;spacing=3.8;strokeOpacity=0;fillOpacity=0;rounded=1;absoluteArcSize=1;arcSize=9;fillColor=#ffffff;strokeWidth=0.8;lucidId=nTHwvHoD4dmf;" vertex="1" parent="jPYobP2dVr4acuuRDoqw-72">
          <mxGeometry width="180" height="45" as="geometry" />
        </mxCell>
        <mxCell id="jPYobP2dVr4acuuRDoqw-77" value="" style="group;dropTarget=0;pointerEvents=0;" vertex="1" parent="1">
          <mxGeometry x="1395" y="643" width="180" height="92" as="geometry" />
        </mxCell>
        <mxCell id="jPYobP2dVr4acuuRDoqw-78" value="" style="html=1;overflow=block;blockSpacing=1;whiteSpace=wrap;fontSize=13;spacing=3.8;strokeColor=#3a414a;strokeOpacity=100;fillOpacity=100;rounded=1;absoluteArcSize=1;arcSize=9;fillColor=#dfe3e8;strokeWidth=0.8;lucidId=ITHw~6.T04jU;" vertex="1" parent="jPYobP2dVr4acuuRDoqw-77">
          <mxGeometry x="62" y="32" width="92" height="60" as="geometry" />
        </mxCell>
        <mxCell id="jPYobP2dVr4acuuRDoqw-79" value="Rest APIs (.Net)" style="html=1;overflow=block;blockSpacing=1;whiteSpace=wrap;fontSize=8.3;fontColor=#3a414a;spacing=3.8;strokeColor=#3a414a;strokeOpacity=100;fillOpacity=100;rounded=1;absoluteArcSize=1;arcSize=9;fillColor=#dfe3e8;strokeWidth=0.8;lucidId=ITHwdlAirKbQ;" vertex="1" parent="jPYobP2dVr4acuuRDoqw-77">
          <mxGeometry x="65" y="40" width="85" height="21" as="geometry" />
        </mxCell>
        <mxCell id="jPYobP2dVr4acuuRDoqw-80" value="UI (React)" style="html=1;overflow=block;blockSpacing=1;whiteSpace=wrap;fontSize=8.3;fontColor=#3a414a;spacing=3.8;strokeColor=#3a414a;strokeOpacity=100;fillOpacity=100;rounded=1;absoluteArcSize=1;arcSize=9;fillColor=#dfe3e8;strokeWidth=0.8;lucidId=ITHw7N_FrCB.;" vertex="1" parent="jPYobP2dVr4acuuRDoqw-77">
          <mxGeometry x="65" y="67" width="85" height="21" as="geometry" />
        </mxCell>
        <mxCell id="jPYobP2dVr4acuuRDoqw-81" value="Website" style="html=1;overflow=block;blockSpacing=1;whiteSpace=wrap;fontSize=16.7;fontColor=#3a414a;spacing=3.8;strokeOpacity=0;fillOpacity=0;rounded=1;absoluteArcSize=1;arcSize=9;fillColor=#ffffff;strokeWidth=0.8;lucidId=ITHwQGJA-Y-Q;" vertex="1" parent="jPYobP2dVr4acuuRDoqw-77">
          <mxGeometry width="180" height="45" as="geometry" />
        </mxCell>
        <mxCell id="jPYobP2dVr4acuuRDoqw-82" value="" style="group;dropTarget=0;pointerEvents=0;" vertex="1" parent="1">
          <mxGeometry x="1661" y="641" width="180" height="93" as="geometry" />
        </mxCell>
        <mxCell id="jPYobP2dVr4acuuRDoqw-83" value="" style="html=1;overflow=block;blockSpacing=1;whiteSpace=wrap;fontSize=13;spacing=3.8;strokeColor=#3a414a;strokeOpacity=100;fillOpacity=100;rounded=1;absoluteArcSize=1;arcSize=9;fillColor=#dfe3e8;strokeWidth=0.8;lucidId=PTHwS3dayyxP;" vertex="1" parent="jPYobP2dVr4acuuRDoqw-82">
          <mxGeometry x="36" y="33" width="92" height="60" as="geometry" />
        </mxCell>
        <mxCell id="jPYobP2dVr4acuuRDoqw-84" value="UI + API (.Net Razor pages)" style="html=1;overflow=block;blockSpacing=1;whiteSpace=wrap;fontSize=8.3;fontColor=#3a414a;spacing=3.8;strokeColor=#3a414a;strokeOpacity=100;fillOpacity=100;rounded=1;absoluteArcSize=1;arcSize=9;fillColor=#dfe3e8;strokeWidth=0.8;lucidId=PTHwfhOQt7Wf;" vertex="1" parent="jPYobP2dVr4acuuRDoqw-82">
          <mxGeometry x="39" y="42" width="85" height="45" as="geometry" />
        </mxCell>
        <mxCell id="jPYobP2dVr4acuuRDoqw-85" value="Program Admin" style="html=1;overflow=block;blockSpacing=1;whiteSpace=wrap;fontSize=16.7;fontColor=#3a414a;spacing=3.8;strokeOpacity=0;fillOpacity=0;rounded=1;absoluteArcSize=1;arcSize=9;fillColor=#ffffff;strokeWidth=0.8;lucidId=PTHwoOXzxHz~;" vertex="1" parent="jPYobP2dVr4acuuRDoqw-82">
          <mxGeometry width="180" height="45" as="geometry" />
        </mxCell>
        <mxCell id="jPYobP2dVr4acuuRDoqw-86" value="" style="group;dropTarget=0;pointerEvents=0;" vertex="1" parent="1">
          <mxGeometry x="1155" y="641" width="180" height="93" as="geometry" />
        </mxCell>
        <mxCell id="jPYobP2dVr4acuuRDoqw-87" value="" style="html=1;overflow=block;blockSpacing=1;whiteSpace=wrap;fontSize=13;spacing=3.8;strokeColor=#3a414a;strokeOpacity=100;fillOpacity=100;rounded=1;absoluteArcSize=1;arcSize=9;fillColor=#dfe3e8;strokeWidth=0.8;lucidId=~UHwF8LtVM8H;" vertex="1" parent="jPYobP2dVr4acuuRDoqw-86">
          <mxGeometry x="36" y="33" width="92" height="60" as="geometry" />
        </mxCell>
        <mxCell id="jPYobP2dVr4acuuRDoqw-88" value="UI + API (.Net Razor pages)" style="html=1;overflow=block;blockSpacing=1;whiteSpace=wrap;fontSize=8.3;fontColor=#3a414a;spacing=3.8;strokeColor=#3a414a;strokeOpacity=100;fillOpacity=100;rounded=1;absoluteArcSize=1;arcSize=9;fillColor=#dfe3e8;strokeWidth=0.8;lucidId=~UHwlzF6q3sK;" vertex="1" parent="jPYobP2dVr4acuuRDoqw-86">
          <mxGeometry x="39" y="42" width="85" height="45" as="geometry" />
        </mxCell>
        <mxCell id="jPYobP2dVr4acuuRDoqw-89" value="Program Admin" style="html=1;overflow=block;blockSpacing=1;whiteSpace=wrap;fontSize=16.7;fontColor=#3a414a;spacing=3.8;strokeOpacity=0;fillOpacity=0;rounded=1;absoluteArcSize=1;arcSize=9;fillColor=#ffffff;strokeWidth=0.8;lucidId=~UHwfjy4S9lV;" vertex="1" parent="jPYobP2dVr4acuuRDoqw-86">
          <mxGeometry width="180" height="45" as="geometry" />
        </mxCell>
        <mxCell id="jPYobP2dVr4acuuRDoqw-90" value="" style="group;dropTarget=0;pointerEvents=0;" vertex="1" parent="1">
          <mxGeometry x="645" y="635" width="180" height="94" as="geometry" />
        </mxCell>
        <mxCell id="jPYobP2dVr4acuuRDoqw-91" value="" style="html=1;overflow=block;blockSpacing=1;whiteSpace=wrap;fontSize=13;spacing=3.8;strokeColor=#3a414a;strokeOpacity=100;fillOpacity=100;rounded=1;absoluteArcSize=1;arcSize=9;fillColor=#dfe3e8;strokeWidth=0.8;lucidId=mVHwiAKeDe37;" vertex="1" parent="jPYobP2dVr4acuuRDoqw-90">
          <mxGeometry x="36" y="34" width="92" height="60" as="geometry" />
        </mxCell>
        <mxCell id="jPYobP2dVr4acuuRDoqw-92" value="UI + API (.Net Razor pages)" style="html=1;overflow=block;blockSpacing=1;whiteSpace=wrap;fontSize=8.3;fontColor=#3a414a;spacing=3.8;strokeColor=#3a414a;strokeOpacity=100;fillOpacity=100;rounded=1;absoluteArcSize=1;arcSize=9;fillColor=#dfe3e8;strokeWidth=0.8;lucidId=mVHwYKQrraKf;" vertex="1" parent="jPYobP2dVr4acuuRDoqw-90">
          <mxGeometry x="39" y="42" width="85" height="45" as="geometry" />
        </mxCell>
        <mxCell id="jPYobP2dVr4acuuRDoqw-93" value="Program Admin" style="html=1;overflow=block;blockSpacing=1;whiteSpace=wrap;fontSize=16.7;fontColor=#3a414a;spacing=3.8;strokeOpacity=0;fillOpacity=0;rounded=1;absoluteArcSize=1;arcSize=9;fillColor=#ffffff;strokeWidth=0.8;lucidId=mVHw6U1d5ogr;" vertex="1" parent="jPYobP2dVr4acuuRDoqw-90">
          <mxGeometry width="180" height="45" as="geometry" />
        </mxCell>
        <mxCell id="jPYobP2dVr4acuuRDoqw-94" value="Managed database server" style="html=1;overflow=block;blockSpacing=1;whiteSpace=wrap;fontSize=16.7;fontColor=#3a414a;align=center;spacing=3.8;verticalAlign=top;strokeColor=#3a414a;strokeOpacity=100;rounded=1;absoluteArcSize=1;arcSize=9;strokeWidth=0.8;lucidId=KXVDC6mhgfpZ;" vertex="1" parent="1">
          <mxGeometry x="510" y="-1245" width="688" height="270" as="geometry" />
        </mxCell>
        <mxCell id="jPYobP2dVr4acuuRDoqw-95" value="Next.js" style="html=1;overflow=block;blockSpacing=1;whiteSpace=wrap;fontSize=16.7;fontColor=#3a414a;spacing=3.8;strokeColor=#3a414a;strokeOpacity=100;rounded=1;absoluteArcSize=1;arcSize=9;strokeWidth=0.8;lucidId=0cWDm_xpJIhq;" vertex="1" parent="1">
          <mxGeometry x="585" y="722" width="66" height="46" as="geometry" />
        </mxCell>
        <mxCell id="jPYobP2dVr4acuuRDoqw-96" value="Report API" style="html=1;overflow=block;blockSpacing=1;whiteSpace=wrap;fontSize=16.7;fontColor=#3a414a;spacing=3.8;strokeColor=#3a414a;strokeOpacity=100;rounded=1;absoluteArcSize=1;arcSize=9;strokeWidth=0.8;lucidId=adWD~uMqhj3L;" vertex="1" parent="1">
          <mxGeometry x="585" y="659" width="66" height="48" as="geometry" />
        </mxCell>
        <mxCell id="jPYobP2dVr4acuuRDoqw-97" value="existing db" style="html=1;overflow=block;blockSpacing=1;whiteSpace=wrap;fontSize=16.7;fontColor=#3a414a;spacing=3.8;strokeColor=#3a414a;strokeOpacity=100;rounded=1;absoluteArcSize=1;arcSize=9;strokeWidth=0.8;lucidId=HdWDe0F~v9po;" vertex="1" parent="1">
          <mxGeometry x="585" y="-1140" width="120" height="120" as="geometry" />
        </mxCell>
        <mxCell id="jPYobP2dVr4acuuRDoqw-98" value="reporting db" style="html=1;overflow=block;blockSpacing=1;whiteSpace=wrap;fontSize=16.7;fontColor=#3a414a;spacing=3.8;strokeColor=#3a414a;strokeOpacity=100;rounded=1;absoluteArcSize=1;arcSize=9;strokeWidth=0.8;lucidId=0dWDobwFWVkL;" vertex="1" parent="1">
          <mxGeometry x="825" y="-1140" width="120" height="120" as="geometry" />
        </mxCell>
        <mxCell id="jPYobP2dVr4acuuRDoqw-99" value="existing website" style="html=1;overflow=block;blockSpacing=1;whiteSpace=wrap;fontSize=16.7;fontColor=#3a414a;spacing=3.8;strokeColor=#3a414a;strokeOpacity=100;rounded=1;absoluteArcSize=1;arcSize=9;strokeWidth=0.8;lucidId=deWDKJZZz6rD;" vertex="1" parent="1">
          <mxGeometry x="585" y="-825" width="120" height="120" as="geometry" />
        </mxCell>
        <mxCell id="jPYobP2dVr4acuuRDoqw-100" value="reporting api" style="html=1;overflow=block;blockSpacing=1;whiteSpace=wrap;fontSize=16.7;fontColor=#3a414a;spacing=3.8;strokeColor=#3a414a;strokeOpacity=100;fillOpacity=100;rounded=1;absoluteArcSize=1;arcSize=9;fillColor=#fff3d9;strokeWidth=0.8;lucidId=neWD-rGK9s59;" vertex="1" parent="1">
          <mxGeometry x="792" y="-825" width="120" height="120" as="geometry" />
        </mxCell>
        <mxCell id="jPYobP2dVr4acuuRDoqw-101" value="" style="html=1;jettySize=18;whiteSpace=wrap;fontSize=13;strokeColor=#3a414a;strokeOpacity=100;strokeWidth=0.8;rounded=1;arcSize=12;curved=1;startArrow=none;endArrow=block;endFill=1;exitX=0.5;exitY=-0.003;exitPerimeter=0;entryX=0.668;entryY=1.003;entryPerimeter=0;lucidId=DeWDt_JVGvuT;" edge="1" parent="1" source="jPYobP2dVr4acuuRDoqw-100" target="jPYobP2dVr4acuuRDoqw-98">
          <mxGeometry width="100" height="100" relative="1" as="geometry">
            <Array as="points">
              <mxPoint x="852" y="-1013" />
              <mxPoint x="905" y="-832" />
            </Array>
          </mxGeometry>
        </mxCell>
        <mxCell id="jPYobP2dVr4acuuRDoqw-102" value="" style="html=1;jettySize=18;whiteSpace=wrap;fontSize=13;strokeColor=#3a414a;strokeOpacity=100;strokeWidth=0.8;rounded=1;arcSize=12;curved=1;startArrow=none;endArrow=block;endFill=1;exitX=0.5;exitY=-0.003;exitPerimeter=0;entryX=0.5;entryY=1.003;entryPerimeter=0;lucidId=MeWDRQ3f.UTr;" edge="1" parent="1" source="jPYobP2dVr4acuuRDoqw-99" target="jPYobP2dVr4acuuRDoqw-97">
          <mxGeometry width="100" height="100" relative="1" as="geometry">
            <Array as="points">
              <mxPoint x="645" y="-1013" />
              <mxPoint x="645" y="-832" />
            </Array>
          </mxGeometry>
        </mxCell>
        <mxCell id="jPYobP2dVr4acuuRDoqw-103" value="next.js&#xa;reporting UI" style="html=1;overflow=block;blockSpacing=1;whiteSpace=wrap;fontSize=16.7;fontColor=#3a414a;spacing=3.8;strokeColor=#3a414a;strokeOpacity=100;rounded=1;absoluteArcSize=1;arcSize=9;strokeWidth=0.8;lucidId=1eWDW-gmSEkl;" vertex="1" parent="1">
          <mxGeometry x="690" y="-615" width="120" height="120" as="geometry" />
        </mxCell>
        <mxCell id="jPYobP2dVr4acuuRDoqw-104" value="" style="html=1;jettySize=18;whiteSpace=wrap;fontSize=13;strokeColor=#3a414a;strokeOpacity=100;strokeWidth=0.8;rounded=1;arcSize=12;curved=1;startArrow=none;endArrow=block;endFill=1;exitX=0.5;exitY=-0.003;exitPerimeter=0;entryX=0.5;entryY=1.003;entryPerimeter=0;lucidId=gfWDuamFO~Zc;" edge="1" parent="1" source="jPYobP2dVr4acuuRDoqw-103" target="jPYobP2dVr4acuuRDoqw-100">
          <mxGeometry width="100" height="100" relative="1" as="geometry">
            <Array as="points">
              <mxPoint x="750" y="-803" />
              <mxPoint x="852" y="-517" />
            </Array>
          </mxGeometry>
        </mxCell>
        <mxCell id="jPYobP2dVr4acuuRDoqw-105" value="" style="html=1;jettySize=18;whiteSpace=wrap;fontSize=13;strokeColor=#3a414a;strokeOpacity=100;strokeWidth=0.8;rounded=1;arcSize=12;curved=1;startArrow=none;endArrow=block;endFill=1;exitX=0.5;exitY=-0.003;exitPerimeter=0;entryX=0.473;entryY=1.003;entryPerimeter=0;lucidId=nfWDBUtX3uzb;" edge="1" parent="1" source="jPYobP2dVr4acuuRDoqw-103" target="jPYobP2dVr4acuuRDoqw-99">
          <mxGeometry width="100" height="100" relative="1" as="geometry">
            <Array as="points">
              <mxPoint x="750" y="-803" />
              <mxPoint x="642" y="-517" />
            </Array>
          </mxGeometry>
        </mxCell>
        <mxCell id="jPYobP2dVr4acuuRDoqw-106" value="next.js&#xa;ProgramAdmin&#xa;reporting UI" style="html=1;overflow=block;blockSpacing=1;whiteSpace=wrap;fontSize=16.7;fontColor=#3a414a;spacing=3.8;strokeColor=#3a414a;strokeOpacity=100;rounded=1;absoluteArcSize=1;arcSize=9;strokeWidth=0.8;lucidId=WfWDr71E9.u3;" vertex="1" parent="1">
          <mxGeometry x="1035" y="-615" width="120" height="120" as="geometry" />
        </mxCell>
        <mxCell id="jPYobP2dVr4acuuRDoqw-107" value="existing programAdmin&#xa;existing Razor" style="html=1;overflow=block;blockSpacing=1;whiteSpace=wrap;fontSize=16.7;fontColor=#3a414a;spacing=3.8;strokeColor=#3a414a;strokeOpacity=100;rounded=1;absoluteArcSize=1;arcSize=9;strokeWidth=0.8;lucidId=igWDq76L~F8W;" vertex="1" parent="1">
          <mxGeometry x="1125" y="-825" width="120" height="120" as="geometry" />
        </mxCell>
        <mxCell id="jPYobP2dVr4acuuRDoqw-108" value="" style="html=1;jettySize=18;whiteSpace=wrap;fontSize=13;strokeColor=#3a414a;strokeOpacity=100;strokeWidth=0.8;rounded=1;arcSize=12;curved=1;startArrow=none;endArrow=block;endFill=1;exitX=0.5;exitY=-0.003;exitPerimeter=0;entryX=0.779;entryY=1.003;entryPerimeter=0;lucidId=HgWDrYVyA8xt;" edge="1" parent="1" source="jPYobP2dVr4acuuRDoqw-107" target="jPYobP2dVr4acuuRDoqw-97">
          <mxGeometry width="100" height="100" relative="1" as="geometry">
            <Array as="points">
              <mxPoint x="1185" y="-1013" />
              <mxPoint x="678" y="-832" />
            </Array>
          </mxGeometry>
        </mxCell>
        <mxCell id="jPYobP2dVr4acuuRDoqw-109" value="reporting api&#xa;programAdmin" style="html=1;overflow=block;blockSpacing=1;whiteSpace=wrap;fontSize=16.7;fontColor=#3a414a;spacing=3.8;strokeColor=#3a414a;strokeOpacity=100;fillOpacity=100;rounded=1;absoluteArcSize=1;arcSize=9;fillColor=#fff3d9;strokeWidth=0.8;lucidId=TgWD2in.0TRn;" vertex="1" parent="1">
          <mxGeometry x="915" y="-825" width="120" height="120" as="geometry" />
        </mxCell>
        <mxCell id="jPYobP2dVr4acuuRDoqw-110" value="" style="html=1;jettySize=18;whiteSpace=wrap;fontSize=13;strokeColor=#3a414a;strokeOpacity=100;strokeWidth=0.8;rounded=1;arcSize=12;curved=1;startArrow=none;endArrow=block;endFill=1;exitX=0.5;exitY=-0.003;exitPerimeter=0;entryX=0.651;entryY=1.003;entryPerimeter=0;lucidId=8gWDPVoNBxlt;" edge="1" parent="1" source="jPYobP2dVr4acuuRDoqw-106" target="jPYobP2dVr4acuuRDoqw-109">
          <mxGeometry width="100" height="100" relative="1" as="geometry">
            <Array as="points">
              <mxPoint x="1095" y="-803" />
              <mxPoint x="993" y="-517" />
            </Array>
          </mxGeometry>
        </mxCell>
        <mxCell id="jPYobP2dVr4acuuRDoqw-111" value="" style="html=1;jettySize=18;whiteSpace=wrap;fontSize=13;strokeColor=#3a414a;strokeOpacity=100;strokeWidth=0.8;rounded=1;arcSize=12;curved=1;startArrow=none;endArrow=block;endFill=1;exitX=0.5;exitY=-0.003;exitPerimeter=0;entryX=0.837;entryY=1.003;entryPerimeter=0;lucidId=chWDLxZK6L7J;" edge="1" parent="1" source="jPYobP2dVr4acuuRDoqw-109" target="jPYobP2dVr4acuuRDoqw-98">
          <mxGeometry width="100" height="100" relative="1" as="geometry">
            <Array as="points">
              <mxPoint x="975" y="-1013" />
              <mxPoint x="925" y="-832" />
            </Array>
          </mxGeometry>
        </mxCell>
        <mxCell id="jPYobP2dVr4acuuRDoqw-112" value="reporting api" style="html=1;overflow=block;blockSpacing=1;whiteSpace=wrap;fontSize=16.7;fontColor=#3a414a;spacing=3.8;strokeColor=#3a414a;strokeOpacity=100;fillOpacity=100;rounded=1;absoluteArcSize=1;arcSize=9;fillColor=#fff3d9;strokeWidth=0.8;lucidId=zhWD3PeoP-F7;" vertex="1" parent="1">
          <mxGeometry x="1380" y="-1035" width="120" height="120" as="geometry" />
        </mxCell>
        <mxCell id="jPYobP2dVr4acuuRDoqw-113" value="reporting api&#xa;programAdmin" style="html=1;overflow=block;blockSpacing=1;whiteSpace=wrap;fontSize=16.7;fontColor=#3a414a;spacing=3.8;strokeColor=#3a414a;strokeOpacity=100;fillOpacity=100;rounded=1;absoluteArcSize=1;arcSize=9;fillColor=#fff3d9;strokeWidth=0.8;lucidId=zhWDk.JqGoE6;" vertex="1" parent="1">
          <mxGeometry x="1545" y="-1035" width="120" height="120" as="geometry" />
        </mxCell>
        <mxCell id="jPYobP2dVr4acuuRDoqw-114" value="reporting api&#xa;core&#xa;get report service" style="html=1;overflow=block;blockSpacing=1;whiteSpace=wrap;fontSize=16.7;fontColor=#3a414a;spacing=3.8;strokeColor=#3a414a;strokeOpacity=100;fillOpacity=100;rounded=1;absoluteArcSize=1;arcSize=9;fillColor=#e3fae3;strokeWidth=0.8;lucidId=IhWD_zcq0Cs7;" vertex="1" parent="1">
          <mxGeometry x="1480" y="-1215" width="120" height="120" as="geometry" />
        </mxCell>
        <mxCell id="jPYobP2dVr4acuuRDoqw-115" value="" style="html=1;jettySize=18;whiteSpace=wrap;fontSize=13;strokeColor=#3a414a;strokeOpacity=100;strokeWidth=0.8;rounded=1;arcSize=12;curved=1;startArrow=none;endArrow=block;endFill=1;exitX=0.5;exitY=-0.003;exitPerimeter=0;entryX=0.164;entryY=1.003;entryPerimeter=0;lucidId=VhWDb0ggiJXw;" edge="1" parent="1" source="jPYobP2dVr4acuuRDoqw-112" target="jPYobP2dVr4acuuRDoqw-114">
          <mxGeometry width="100" height="100" relative="1" as="geometry">
            <Array as="points">
              <mxPoint x="1440" y="-1223" />
              <mxPoint x="1499" y="-907" />
            </Array>
          </mxGeometry>
        </mxCell>
        <mxCell id="jPYobP2dVr4acuuRDoqw-116" value="" style="html=1;jettySize=18;whiteSpace=wrap;fontSize=13;strokeColor=#3a414a;strokeOpacity=100;strokeWidth=0.8;rounded=1;arcSize=12;curved=1;startArrow=none;endArrow=block;endFill=1;exitX=0.5;exitY=-0.003;exitPerimeter=0;entryX=0.723;entryY=1.003;entryPerimeter=0;lucidId=YhWDrhlpUe7-;" edge="1" parent="1" source="jPYobP2dVr4acuuRDoqw-113" target="jPYobP2dVr4acuuRDoqw-114">
          <mxGeometry width="100" height="100" relative="1" as="geometry">
            <Array as="points">
              <mxPoint x="1605" y="-1223" />
              <mxPoint x="1566" y="-907" />
            </Array>
          </mxGeometry>
        </mxCell>
        <mxCell id="jPYobP2dVr4acuuRDoqw-117" value="" style="html=1;jettySize=18;whiteSpace=wrap;fontSize=13;strokeColor=#3a414a;strokeOpacity=100;strokeWidth=0.8;rounded=1;arcSize=12;curved=1;startArrow=none;endArrow=block;endFill=1;exitX=0.5;exitY=-0.003;exitPerimeter=0;entryX=0.492;entryY=1.003;entryPerimeter=0;lucidId=ziWDRBzZ-.4b;" edge="1" parent="1" source="jPYobP2dVr4acuuRDoqw-106" target="jPYobP2dVr4acuuRDoqw-107">
          <mxGeometry width="100" height="100" relative="1" as="geometry">
            <Array as="points">
              <mxPoint x="1095" y="-803" />
              <mxPoint x="1184" y="-517" />
            </Array>
          </mxGeometry>
        </mxCell>
        <mxCell id="jPYobP2dVr4acuuRDoqw-118" value="B2C" style="html=1;overflow=block;blockSpacing=1;whiteSpace=wrap;fontSize=16.7;fontColor=#3a414a;spacing=3.8;strokeColor=#3a414a;strokeOpacity=100;rounded=1;absoluteArcSize=1;arcSize=9;strokeWidth=0.8;lucidId=ZkWDCLt6wQCm;" vertex="1" parent="1">
          <mxGeometry x="1035" y="-465" width="120" height="120" as="geometry" />
        </mxCell>
        <mxCell id="jPYobP2dVr4acuuRDoqw-119" value="B2C" style="html=1;overflow=block;blockSpacing=1;whiteSpace=wrap;fontSize=16.7;fontColor=#3a414a;spacing=3.8;strokeColor=#3a414a;strokeOpacity=100;rounded=1;absoluteArcSize=1;arcSize=9;strokeWidth=0.8;lucidId=_kWDSzoa8A1r;" vertex="1" parent="1">
          <mxGeometry x="690" y="-463" width="120" height="120" as="geometry" />
        </mxCell>
        <mxCell id="jPYobP2dVr4acuuRDoqw-120" value="Next.js" style="html=1;overflow=block;blockSpacing=1;whiteSpace=wrap;fontSize=16.7;fontColor=#3a414a;spacing=3.8;strokeColor=#3a414a;strokeOpacity=100;rounded=1;absoluteArcSize=1;arcSize=9;strokeWidth=0.8;lucidId=9IXD4CF8zm-R;" vertex="1" parent="1">
          <mxGeometry x="1080" y="723" width="66" height="46" as="geometry" />
        </mxCell>
        <mxCell id="jPYobP2dVr4acuuRDoqw-121" value="Report API" style="html=1;overflow=block;blockSpacing=1;whiteSpace=wrap;fontSize=16.7;fontColor=#3a414a;spacing=3.8;strokeColor=#3a414a;strokeOpacity=100;rounded=1;absoluteArcSize=1;arcSize=9;strokeWidth=0.8;lucidId=9IXDmbWcQS7b;" vertex="1" parent="1">
          <mxGeometry x="1080" y="660" width="66" height="48" as="geometry" />
        </mxCell>
        <mxCell id="jPYobP2dVr4acuuRDoqw-122" value="Next.js" style="html=1;overflow=block;blockSpacing=1;whiteSpace=wrap;fontSize=16.7;fontColor=#3a414a;spacing=3.8;strokeColor=#3a414a;strokeOpacity=100;rounded=1;absoluteArcSize=1;arcSize=9;strokeWidth=0.8;lucidId=cJXD~e1frEVY;" vertex="1" parent="1">
          <mxGeometry x="1830" y="708" width="66" height="46" as="geometry" />
        </mxCell>
        <mxCell id="jPYobP2dVr4acuuRDoqw-123" value="Report API" style="html=1;overflow=block;blockSpacing=1;whiteSpace=wrap;fontSize=16.7;fontColor=#3a414a;spacing=3.8;strokeColor=#3a414a;strokeOpacity=100;rounded=1;absoluteArcSize=1;arcSize=9;strokeWidth=0.8;lucidId=cJXD5yXIuced;" vertex="1" parent="1">
          <mxGeometry x="1830" y="645" width="66" height="48" as="geometry" />
        </mxCell>
      </root>
    </mxGraphModel>
  </diagram>
  <diagram id="SPo4YHe0AJEZK8DkWXaK" name="OceanWise">
    <mxGraphModel dx="4190" dy="3571" grid="1" gridSize="10" guides="1" tooltips="1" connect="1" arrows="1" fold="1" page="1" pageScale="1" pageWidth="827" pageHeight="1169" math="0" shadow="0">
      <root>
        <mxCell id="0" />
        <mxCell id="1" parent="0" />
        <mxCell id="7xM-WGdvNuDhOGoBFhVq-1" value="" style="html=1;jettySize=18;whiteSpace=wrap;fontSize=13;strokeOpacity=100;strokeWidth=0.8;rounded=1;arcSize=0;curved=1;startArrow=none;endArrow=block;endFill=1;exitX=0;exitY=0.5;exitPerimeter=0;entryX=1.014;entryY=0.5;entryPerimeter=0;lucidId=SP25_gYhXGZd;" edge="1" parent="1" source="7xM-WGdvNuDhOGoBFhVq-87" target="7xM-WGdvNuDhOGoBFhVq-11">
          <mxGeometry width="100" height="100" relative="1" as="geometry">
            <Array as="points">
              <mxPoint x="87" y="-1558" />
              <mxPoint x="-14" y="-1519" />
            </Array>
          </mxGeometry>
        </mxCell>
        <mxCell id="7xM-WGdvNuDhOGoBFhVq-2" value="" style="html=1;overflow=block;blockSpacing=1;whiteSpace=wrap;fontSize=13;spacing=3.8;strokeColor=#0070c9;strokeOpacity=100;fillOpacity=30;rounded=1;absoluteArcSize=1;arcSize=15;fillColor=#ffbbb1;strokeWidth=1.5;lucidId=SP25yIcnejpA;" vertex="1" parent="1">
          <mxGeometry x="435" y="-1620" width="300" height="362" as="geometry" />
        </mxCell>
        <mxCell id="7xM-WGdvNuDhOGoBFhVq-3" value="" style="html=1;overflow=block;blockSpacing=1;whiteSpace=wrap;fontSize=13;spacing=3.8;strokeColor=#0070c9;strokeOpacity=100;fillOpacity=30;rounded=1;absoluteArcSize=1;arcSize=15;fillColor=#ffeca9;strokeWidth=1.5;lucidId=SP25SK-Wm-Xw;" vertex="1" parent="1">
          <mxGeometry x="135" y="-1050" width="555" height="272" as="geometry" />
        </mxCell>
        <mxCell id="7xM-WGdvNuDhOGoBFhVq-4" value="" style="html=1;overflow=block;blockSpacing=1;whiteSpace=wrap;fontSize=13;spacing=3.8;strokeColor=#0070c9;strokeOpacity=100;fillOpacity=0;rounded=1;absoluteArcSize=1;arcSize=15;fillColor=#000000;strokeWidth=2.3;lucidId=SP25HzTa3vaF;" vertex="1" parent="1">
          <mxGeometry x="-630" y="-1620" width="1005" height="450" as="geometry" />
        </mxCell>
        <mxCell id="7xM-WGdvNuDhOGoBFhVq-5" value="" style="html=1;overflow=block;blockSpacing=1;whiteSpace=wrap;fontSize=13;spacing=3.8;strokeColor=#0070c9;strokeOpacity=100;fillOpacity=30;rounded=1;absoluteArcSize=1;arcSize=15;fillColor=#99d2f2;strokeWidth=1.5;lucidId=SP25bOvp-hiG;" vertex="1" parent="1">
          <mxGeometry x="-318" y="-1050" width="423" height="251" as="geometry" />
        </mxCell>
        <mxCell id="7xM-WGdvNuDhOGoBFhVq-6" value="" style="html=1;overflow=block;blockSpacing=1;whiteSpace=wrap;fontSize=13;spacing=3.8;strokeColor=#0070c9;strokeOpacity=100;fillOpacity=30;rounded=1;absoluteArcSize=1;arcSize=15;fillColor=#c7e8ac;strokeWidth=1.5;lucidId=SP25B3F.2ArX;" vertex="1" parent="1">
          <mxGeometry x="-702" y="-1052" width="361" height="272" as="geometry" />
        </mxCell>
        <mxCell id="7xM-WGdvNuDhOGoBFhVq-7" value="" style="html=1;overflow=block;blockSpacing=1;whiteSpace=wrap;fontSize=13;spacing=3.8;strokeColor=#0070c9;strokeOpacity=100;fillOpacity=52;rounded=1;absoluteArcSize=1;arcSize=15;fillColor=#c1e4f7;strokeWidth=0.8;lucidId=SP25S6uy30Y-;" vertex="1" parent="1">
          <mxGeometry x="-462" y="-1593" width="672" height="213" as="geometry" />
        </mxCell>
        <mxCell id="7xM-WGdvNuDhOGoBFhVq-8" value="" style="html=1;overflow=block;blockSpacing=1;whiteSpace=wrap;fontSize=13;spacing=3.8;strokeColor=#a3d977;strokeOpacity=100;fillOpacity=0;rounded=1;absoluteArcSize=1;arcSize=15;fillColor=#000000;strokeWidth=3;lucidId=SP25Ywa4X7cM;" vertex="1" parent="1">
          <mxGeometry x="-780" y="-1380" width="106" height="211" as="geometry" />
        </mxCell>
        <mxCell id="7xM-WGdvNuDhOGoBFhVq-9" value="" style="html=1;overflow=block;blockSpacing=1;whiteSpace=wrap;fontSize=13;spacing=3.8;strokeColor=#e05243;strokeOpacity=100;fillOpacity=0;rounded=1;absoluteArcSize=1;arcSize=15;fillColor=#000000;strokeWidth=3;lucidId=SP25qZbiLLKj;" vertex="1" parent="1">
          <mxGeometry x="-766" y="-1620" width="97" height="211" as="geometry" />
        </mxCell>
        <mxCell id="7xM-WGdvNuDhOGoBFhVq-10" value="Vancouver Ocean Wise Platform as of 2022 Q4" style="html=1;overflow=block;blockSpacing=1;whiteSpace=wrap;fontSize=23.3;fontColor=default;spacing=3.8;strokeOpacity=0;fillOpacity=0;fillColor=#ffffff;strokeWidth=1.5;lucidId=SP25BDGAgENu;" vertex="1" parent="1">
          <mxGeometry x="-450" y="-1701" width="510" height="63" as="geometry" />
        </mxCell>
        <mxCell id="7xM-WGdvNuDhOGoBFhVq-11" value="vnwhale" style="html=1;overflow=block;blockSpacing=1;whiteSpace=wrap;shape=cylinder3;size=4;anchorPointDirection=0;boundedLbl=1;fontSize=15;fontFamily=Roboto;fontColor=#172b4d;spacing=3.8;strokeOpacity=100;fillOpacity=100;fillColor=#ffeca9;strokeWidth=1.5;lucidId=SP25IpmVSO3z;" vertex="1" parent="1">
          <mxGeometry x="-255" y="-1545" width="53" height="53" as="geometry" />
        </mxCell>
        <mxCell id="7xM-WGdvNuDhOGoBFhVq-12" value="WhaleReport API" style="html=1;overflow=block;blockSpacing=1;whiteSpace=wrap;fontSize=15;fontColor=default;spacing=3.8;strokeColor=#3aa6dd;strokeOpacity=100;fillOpacity=100;rounded=1;absoluteArcSize=1;arcSize=15;fillColor=#99d2f2;strokeWidth=1.5;lucidId=SP25MuoJCXnR;" vertex="1" parent="1">
          <mxGeometry x="-274" y="-1459" width="97" height="52" as="geometry" />
        </mxCell>
        <mxCell id="7xM-WGdvNuDhOGoBFhVq-13" value="" style="html=1;jettySize=18;whiteSpace=wrap;fontSize=13;strokeOpacity=100;strokeWidth=1.5;rounded=1;arcSize=0;curved=1;startArrow=none;endArrow=block;endFill=1;exitX=0.5;exitY=-0.015;exitPerimeter=0;entryX=0.5;entryY=1.014;entryPerimeter=0;lucidId=SP25VmyGbM74;" edge="1" parent="1" source="7xM-WGdvNuDhOGoBFhVq-12" target="7xM-WGdvNuDhOGoBFhVq-11">
          <mxGeometry width="100" height="100" relative="1" as="geometry">
            <Array as="points">
              <mxPoint x="-225" y="-1647" />
              <mxPoint x="-229" y="-1304" />
            </Array>
          </mxGeometry>
        </mxCell>
        <mxCell id="7xM-WGdvNuDhOGoBFhVq-14" value="" style="html=1;overflow=block;blockSpacing=1;whiteSpace=wrap;shape=image;fontSize=13;spacing=0;strokeColor=none;strokeOpacity=100;strokeWidth=0;image=https://images.app.lucidchart.com/images/79569444-5300-41dc-ab4f-6bb1af09d2ae/content;imageAspect=0;lucidId=SP25KSDKAcCx;" vertex="1" parent="1">
          <mxGeometry x="-95" y="-1034" width="101" height="101" as="geometry" />
        </mxCell>
        <mxCell id="7xM-WGdvNuDhOGoBFhVq-15" value="&lt;div style=&quot;display: flex; justify-content: flex-start; text-align: left; align-items: baseline; font-size: 0; line-height: 1.25;margin-top: -2px;&quot;&gt;&lt;span&gt;&lt;span style=&quot;font-size:20.7px;color:#1d1d1f;font-weight: bold;&quot;&gt;WhaleReport&lt;/span&gt;&lt;/span&gt;&lt;/div&gt;&lt;div style=&quot;display: flex; justify-content: center; text-align: center; align-items: baseline; font-size: 0; line-height: 1.25;margin-top: -2px;&quot;&gt;&lt;span&gt;&lt;span style=&quot;font-size:13px;font-weight: bold;&quot;&gt;&lt;span style=&quot;font-size:7.1px;color:#636366;font-weight: bold;&quot;&gt;4+&lt;/span&gt;&lt;span style=&quot;font-size:12.7px;color:#000000;&quot;&gt;&#xa;&lt;/span&gt;&lt;/span&gt;&lt;/span&gt;&lt;/div&gt;&lt;div style=&quot;display: flex; justify-content: flex-start; text-align: left; align-items: baseline; font-size: 0; line-height: 1.25;margin-top: -2px;&quot;&gt;&lt;span&gt;&lt;a href=&quot;https://apps.apple.com/ca/developer/ocean-wise-conservation-association/id982066468&quot;&gt;&lt;span style=&quot;font-size:14.7px;color:#0070c9;&quot;&gt;Ocean Wise Conservation Association&lt;/span&gt;&lt;/a&gt;&lt;/span&gt;&lt;/div&gt;" style="html=1;overflow=block;blockSpacing=1;whiteSpace=wrap;fontSize=13;align=left;spacing=3.8;verticalAlign=top;strokeColor=none;fillOpacity=0;fillColor=#ffffff;strokeWidth=0;lucidId=SP259w6ECQ94;" vertex="1" parent="1">
          <mxGeometry x="-90" y="-894" width="184" height="35" as="geometry" />
        </mxCell>
        <mxCell id="7xM-WGdvNuDhOGoBFhVq-16" value="" style="html=1;overflow=block;blockSpacing=1;whiteSpace=wrap;shape=image;fontSize=13;spacing=3.8;strokeColor=none;strokeOpacity=100;strokeWidth=0;image=https://images.app.lucidchart.com/images/d4f195f7-3d70-4965-b680-e1feab9b9e72/content;imageAspect=0;lucidId=SP25.ZKkgMr6;" vertex="1" parent="1">
          <mxGeometry x="-109" y="-947" width="44" height="44" as="geometry" />
        </mxCell>
        <mxCell id="7xM-WGdvNuDhOGoBFhVq-17" value="" style="html=1;overflow=block;blockSpacing=1;whiteSpace=wrap;shape=image;fontSize=13;spacing=3.8;strokeColor=none;strokeOpacity=100;strokeWidth=0;image=https://images.app.lucidchart.com/images/d31ff0b3-0cc9-483c-8426-06e3716f3cd2/content;imageAspect=0;lucidId=SP25EeDBXcFu;" vertex="1" parent="1">
          <mxGeometry x="-25" y="-947" width="44" height="44" as="geometry" />
        </mxCell>
        <mxCell id="7xM-WGdvNuDhOGoBFhVq-18" value="" style="html=1;overflow=block;blockSpacing=1;whiteSpace=wrap;shape=image;fontSize=13;spacing=0;strokeColor=none;strokeOpacity=100;strokeWidth=0;image=https://images.app.lucidchart.com/images/7d5147ed-fd31-4d2e-8389-2c3529a0068b/content;imageAspect=0;lucidId=SP25qWIYJEgo;" vertex="1" parent="1">
          <mxGeometry x="-684" y="-1041" width="101" height="101" as="geometry" />
        </mxCell>
        <mxCell id="7xM-WGdvNuDhOGoBFhVq-19" value="" style="html=1;overflow=block;blockSpacing=1;whiteSpace=wrap;shape=image;fontSize=13;spacing=0;strokeColor=none;strokeOpacity=100;strokeWidth=0;image=https://images.app.lucidchart.com/images/068a0b11-875b-45d6-ab5a-bc9e030180ee/content;imageAspect=0;lucidId=SP25SdjZl-N2;" vertex="1" parent="1">
          <mxGeometry x="-544" y="-1043" width="175" height="137" as="geometry" />
        </mxCell>
        <mxCell id="7xM-WGdvNuDhOGoBFhVq-20" value="&lt;div style=&quot;display: flex; justify-content: flex-start; text-align: left; align-items: baseline; font-size: 0; line-height: 1.25;margin-top: -2px;&quot;&gt;&lt;span&gt;&lt;span style=&quot;font-size:20.7px;color:#1d1d1f;font-weight: bold;&quot;&gt;WRAS Pilot&lt;/span&gt;&lt;/span&gt;&lt;/div&gt;&lt;div style=&quot;display: flex; justify-content: center; text-align: center; align-items: baseline; font-size: 0; line-height: 1.25;margin-top: -2px;&quot;&gt;&lt;span&gt;&lt;span style=&quot;font-size:13px;font-weight: bold;&quot;&gt;&lt;span style=&quot;font-size:7.1px;color:#636366;font-weight: bold;&quot;&gt;4+&lt;/span&gt;&lt;span style=&quot;font-size:12.7px;color:#000000;&quot;&gt;&#xa;&lt;/span&gt;&lt;/span&gt;&lt;/span&gt;&lt;/div&gt;&lt;div style=&quot;display: flex; justify-content: flex-start; text-align: left; align-items: baseline; font-size: 0; line-height: 1.25;margin-top: -2px;&quot;&gt;&lt;span&gt;&lt;a href=&quot;https://apps.apple.com/us/developer/spatial-vision/id433592116&quot;&gt;&lt;span style=&quot;font-size:14.7px;color:#0070c9;&quot;&gt;Spatial Vision&lt;/span&gt;&lt;/a&gt;&lt;/span&gt;&lt;/div&gt;" style="html=1;overflow=block;blockSpacing=1;whiteSpace=wrap;fontSize=13;align=left;spacing=3.8;verticalAlign=top;strokeColor=none;fillOpacity=0;fillColor=#ffffff;strokeWidth=0;lucidId=SP25gpa74jqA;" vertex="1" parent="1">
          <mxGeometry x="-684" y="-885" width="89" height="35" as="geometry" />
        </mxCell>
        <mxCell id="7xM-WGdvNuDhOGoBFhVq-21" value="" style="html=1;overflow=block;blockSpacing=1;whiteSpace=wrap;shape=image;fontSize=13;spacing=3.8;strokeColor=none;strokeOpacity=100;strokeWidth=0;image=https://images.app.lucidchart.com/images/d4f195f7-3d70-4965-b680-e1feab9b9e72/content;imageAspect=0;lucidId=SP25XppJqhiK;" vertex="1" parent="1">
          <mxGeometry x="-693" y="-954" width="48" height="48" as="geometry" />
        </mxCell>
        <mxCell id="7xM-WGdvNuDhOGoBFhVq-22" value="" style="html=1;overflow=block;blockSpacing=1;whiteSpace=wrap;shape=image;fontSize=13;spacing=3.8;strokeColor=none;strokeOpacity=100;strokeWidth=0;image=https://images.app.lucidchart.com/images/d31ff0b3-0cc9-483c-8426-06e3716f3cd2/content;imageAspect=0;lucidId=SP25KYw4FYAo;" vertex="1" parent="1">
          <mxGeometry x="-614" y="-954" width="43" height="43" as="geometry" />
        </mxCell>
        <mxCell id="7xM-WGdvNuDhOGoBFhVq-23" value="&lt;div style=&quot;display: flex; justify-content: flex-start; text-align: left; align-items: baseline; font-size: 0; line-height: 1.25;margin-top: -2px;&quot;&gt;&lt;span&gt;&lt;span style=&quot;font-size:20.7px;color:#1d1d1f;font-weight: bold;&quot;&gt;WRAS Desktop&#xa;&lt;/span&gt;&lt;/span&gt;&lt;/div&gt;&lt;div style=&quot;display: flex; justify-content: flex-start; text-align: left; align-items: baseline; font-size: 0; line-height: 1.25;margin-top: -2px;&quot;&gt;&lt;span&gt;&lt;a href=&quot;https://prod-vancouverwras-app.spatialvision.com.au/&quot;&gt;&lt;span style=&quot;font-size:11px;color:#0000ee;text-decoration: underline;&quot;&gt;https://prod-vancouverwras-app.spatialvision.com.au/&lt;/span&gt;&lt;/a&gt;&lt;span style=&quot;font-size:12.7px;color:#000000;&quot;&gt;&#xa;&lt;/span&gt;&lt;/span&gt;&lt;/div&gt;&lt;div style=&quot;display: flex; justify-content: flex-start; text-align: left; align-items: baseline; font-size: 0; line-height: 1.25;margin-top: -2px;&quot;&gt;&lt;span&gt;&lt;/span&gt;&lt;/div&gt;" style="html=1;overflow=block;blockSpacing=1;whiteSpace=wrap;fontSize=13;align=left;spacing=3.8;verticalAlign=top;strokeColor=none;fillOpacity=0;fillColor=#ffffff;strokeWidth=0;lucidId=SP25W8T1NrTL;" vertex="1" parent="1">
          <mxGeometry x="-555" y="-870" width="110" height="35" as="geometry" />
        </mxCell>
        <mxCell id="7xM-WGdvNuDhOGoBFhVq-24" value="WRAS API" style="html=1;overflow=block;blockSpacing=1;whiteSpace=wrap;fontSize=15;fontColor=default;spacing=3.8;strokeColor=#3aa6dd;strokeOpacity=100;fillOpacity=100;rounded=1;absoluteArcSize=1;arcSize=15;fillColor=#99d2f2;strokeWidth=1.5;lucidId=SP251-YjZeCF;" vertex="1" parent="1">
          <mxGeometry x="-449" y="-1459" width="97" height="52" as="geometry" />
        </mxCell>
        <mxCell id="7xM-WGdvNuDhOGoBFhVq-25" value="" style="html=1;jettySize=18;whiteSpace=wrap;fontSize=13;strokeOpacity=100;strokeWidth=0.8;rounded=1;arcSize=0;curved=1;startArrow=none;endArrow=block;endFill=1;exitX=-0.008;exitY=0.5;exitPerimeter=0;entryX=1.008;entryY=0.5;entryPerimeter=0;lucidId=SP25_fsIYnFX;" edge="1" parent="1" source="7xM-WGdvNuDhOGoBFhVq-12" target="7xM-WGdvNuDhOGoBFhVq-24">
          <mxGeometry width="100" height="100" relative="1" as="geometry">
            <Array as="points">
              <mxPoint x="-462" y="-1433" />
              <mxPoint x="-164" y="-1433" />
            </Array>
          </mxGeometry>
        </mxCell>
        <mxCell id="7xM-WGdvNuDhOGoBFhVq-26" value="Whale Detection" style="html=1;overflow=block;blockSpacing=1;whiteSpace=wrap;fontSize=15;fontColor=default;spacing=3.8;strokeOpacity=0;fillOpacity=0;fillColor=#ffffff;strokeWidth=1.5;lucidId=SP25ICE92LFf;" vertex="1" parent="1">
          <mxGeometry x="-356" y="-1432" width="88" height="40" as="geometry" />
        </mxCell>
        <mxCell id="7xM-WGdvNuDhOGoBFhVq-27" value="" style="html=1;jettySize=18;whiteSpace=wrap;fontSize=13;strokeOpacity=100;strokeWidth=0.8;rounded=1;arcSize=0;curved=1;startArrow=none;endArrow=block;endFill=1;exitX=0.5;exitY=1.015;exitPerimeter=0;entryX=0.5;entryY=0;entryPerimeter=0;lucidId=SP25kGIxC3Eh;" edge="1" parent="1" source="7xM-WGdvNuDhOGoBFhVq-24" target="7xM-WGdvNuDhOGoBFhVq-19">
          <mxGeometry width="100" height="100" relative="1" as="geometry">
            <Array as="points">
              <mxPoint x="-401" y="-1219" />
              <mxPoint x="-456" y="-1231" />
            </Array>
          </mxGeometry>
        </mxCell>
        <mxCell id="7xM-WGdvNuDhOGoBFhVq-28" value="" style="html=1;jettySize=18;whiteSpace=wrap;fontSize=13;strokeOpacity=100;strokeWidth=0.8;rounded=1;arcSize=0;curved=1;startArrow=none;endArrow=block;endFill=1;exitX=-0.008;exitY=0.5;exitPerimeter=0;entryX=1;entryY=0.306;entryPerimeter=0;lucidId=SP25sOQ_-MWv;" edge="1" parent="1" source="7xM-WGdvNuDhOGoBFhVq-24" target="7xM-WGdvNuDhOGoBFhVq-79">
          <mxGeometry width="100" height="100" relative="1" as="geometry">
            <Array as="points">
              <mxPoint x="-638" y="-1433" />
              <mxPoint x="-308" y="-1403" />
            </Array>
          </mxGeometry>
        </mxCell>
        <mxCell id="7xM-WGdvNuDhOGoBFhVq-29" value="" style="html=1;jettySize=18;whiteSpace=wrap;fontSize=13;strokeOpacity=100;strokeWidth=0.8;rounded=1;arcSize=0;curved=1;startArrow=none;endArrow=block;endFill=1;exitX=0.672;exitY=0;exitPerimeter=0;entryX=0.417;entryY=1.015;entryPerimeter=0;lucidId=SP25npBha~28;" edge="1" parent="1" source="7xM-WGdvNuDhOGoBFhVq-18" target="7xM-WGdvNuDhOGoBFhVq-24">
          <mxGeometry width="100" height="100" relative="1" as="geometry">
            <Array as="points">
              <mxPoint x="-616" y="-1229" />
              <mxPoint x="-409" y="-1219" />
            </Array>
          </mxGeometry>
        </mxCell>
        <mxCell id="7xM-WGdvNuDhOGoBFhVq-30" value="" style="html=1;overflow=block;blockSpacing=1;whiteSpace=wrap;shape=image;fontSize=13;spacing=0;strokeColor=none;strokeOpacity=100;strokeWidth=0;image=https://images.app.lucidchart.com/images/b2b0bd73-88cc-46f0-85d6-bd8d25490e98/content;imageAspect=0;lucidId=SP25KS_BsMNi;" vertex="1" parent="1">
          <mxGeometry x="165" y="-1041" width="186" height="136" as="geometry" />
        </mxCell>
        <mxCell id="7xM-WGdvNuDhOGoBFhVq-31" value="&lt;div style=&quot;display: flex; justify-content: flex-start; text-align: left; align-items: baseline; font-size: 0; line-height: 1.25;margin-top: -2px;&quot;&gt;&lt;span&gt;&lt;span style=&quot;font-size:20.7px;color:#1d1d1f;font-weight: bold;&quot;&gt;BCCSN Sightings Portal&#xa;&lt;/span&gt;&lt;/span&gt;&lt;/div&gt;&lt;div style=&quot;display: flex; justify-content: flex-start; text-align: left; align-items: baseline; font-size: 0; line-height: 1.25;margin-top: -2px;&quot;&gt;&lt;span&gt;&lt;a href=&quot;https://sightingsportal.ocean.org/&quot;&gt;&lt;span style=&quot;font-size:14.3px;color:#0000ee;text-decoration: underline;&quot;&gt;https://sightingsportal.ocean.org/&lt;/span&gt;&lt;/a&gt;&lt;/span&gt;&lt;/div&gt;" style="html=1;overflow=block;blockSpacing=1;whiteSpace=wrap;fontSize=13;align=left;spacing=3.8;verticalAlign=top;strokeColor=none;fillOpacity=0;fillColor=#ffffff;strokeWidth=0;lucidId=SP25k3BTs~o9;" vertex="1" parent="1">
          <mxGeometry x="165" y="-893" width="110" height="74" as="geometry" />
        </mxCell>
        <mxCell id="7xM-WGdvNuDhOGoBFhVq-32" value="eLog API" style="html=1;overflow=block;blockSpacing=1;whiteSpace=wrap;fontSize=15;fontColor=default;spacing=3.8;strokeColor=#3aa6dd;strokeOpacity=100;fillOpacity=100;rounded=1;absoluteArcSize=1;arcSize=15;fillColor=#99d2f2;strokeWidth=1.5;lucidId=SP251~CB0YYT;" vertex="1" parent="1">
          <mxGeometry x="-75" y="-1459" width="97" height="52" as="geometry" />
        </mxCell>
        <mxCell id="7xM-WGdvNuDhOGoBFhVq-33" value="" style="html=1;jettySize=18;whiteSpace=wrap;fontSize=13;strokeColor=#0c7cba;strokeOpacity=100;strokeWidth=1.5;rounded=1;arcSize=0;curved=1;startArrow=none;endArrow=block;endFill=1;exitX=0.496;exitY=0;exitPerimeter=0;entryX=0.5;entryY=1.015;entryPerimeter=0;lucidId=SP25eET73d11;" edge="1" parent="1" source="7xM-WGdvNuDhOGoBFhVq-30" target="7xM-WGdvNuDhOGoBFhVq-32">
          <mxGeometry width="100" height="100" relative="1" as="geometry">
            <Array as="points">
              <mxPoint x="257" y="-1229" />
              <mxPoint x="-27" y="-1219" />
            </Array>
          </mxGeometry>
        </mxCell>
        <mxCell id="7xM-WGdvNuDhOGoBFhVq-34" value="Company Sightings" style="html=1;overflow=block;blockSpacing=1;whiteSpace=wrap;fontSize=15;fontColor=default;spacing=3.8;strokeOpacity=0;fillOpacity=0;fillColor=#ffffff;strokeWidth=1.5;lucidId=SP257UAKlZkF;" vertex="1" parent="1">
          <mxGeometry x="-189" y="-1430" width="106" height="40" as="geometry" />
        </mxCell>
        <mxCell id="7xM-WGdvNuDhOGoBFhVq-35" value="" style="html=1;jettySize=18;whiteSpace=wrap;fontSize=13;strokeOpacity=100;strokeWidth=0.8;rounded=1;arcSize=0;curved=1;startArrow=block;startFill=1;endArrow=none;exitX=-0.008;exitY=0.5;exitPerimeter=0;entryX=1.008;entryY=0.5;entryPerimeter=0;lucidId=SP255XO57a4.;" edge="1" parent="1" source="7xM-WGdvNuDhOGoBFhVq-32" target="7xM-WGdvNuDhOGoBFhVq-12">
          <mxGeometry width="100" height="100" relative="1" as="geometry">
            <Array as="points">
              <mxPoint x="-263" y="-1433" />
              <mxPoint x="11" y="-1433" />
            </Array>
          </mxGeometry>
        </mxCell>
        <mxCell id="7xM-WGdvNuDhOGoBFhVq-36" value="Monitor &amp; Alert" style="html=1;overflow=block;blockSpacing=1;whiteSpace=wrap;fontSize=21.8;fontColor=#c92d39;spacing=3.8;strokeOpacity=0;fillOpacity=0;fillColor=#ffffff;strokeWidth=1.5;lucidId=SP25gQgB_vJB;" vertex="1" parent="1">
          <mxGeometry x="-600" y="-1110" width="106" height="40" as="geometry" />
        </mxCell>
        <mxCell id="7xM-WGdvNuDhOGoBFhVq-37" value="Report Sightings" style="html=1;overflow=block;blockSpacing=1;whiteSpace=wrap;fontSize=21.8;fontColor=#c92d39;spacing=3.8;strokeOpacity=0;fillOpacity=0;fillColor=#ffffff;strokeWidth=1.5;lucidId=SP25B~zX_JKJ;" vertex="1" parent="1">
          <mxGeometry x="-180" y="-1116" width="106" height="40" as="geometry" />
        </mxCell>
        <mxCell id="7xM-WGdvNuDhOGoBFhVq-38" value="wras" style="html=1;overflow=block;blockSpacing=1;whiteSpace=wrap;shape=cylinder3;size=4;anchorPointDirection=0;boundedLbl=1;fontSize=15;fontFamily=Roboto;fontColor=#172b4d;spacing=3.8;strokeOpacity=100;fillOpacity=100;fillColor=#ffeca9;strokeWidth=1.5;lucidId=SP25-aXV~9RO;" vertex="1" parent="1">
          <mxGeometry x="-420" y="-1547" width="53" height="53" as="geometry" />
        </mxCell>
        <mxCell id="7xM-WGdvNuDhOGoBFhVq-39" value="" style="html=1;jettySize=18;whiteSpace=wrap;fontSize=13;strokeOpacity=100;strokeWidth=1.5;rounded=1;arcSize=0;curved=1;startArrow=none;endArrow=block;endFill=1;exitX=0.5;exitY=-0.015;exitPerimeter=0;entryX=0.584;entryY=1.01;entryPerimeter=0;lucidId=SP259o_k_Q_T;" edge="1" parent="1" source="7xM-WGdvNuDhOGoBFhVq-24" target="7xM-WGdvNuDhOGoBFhVq-38">
          <mxGeometry width="100" height="100" relative="1" as="geometry">
            <Array as="points">
              <mxPoint x="-401" y="-1647" />
              <mxPoint x="-389" y="-1306" />
            </Array>
          </mxGeometry>
        </mxCell>
        <mxCell id="7xM-WGdvNuDhOGoBFhVq-40" value="elog" style="html=1;overflow=block;blockSpacing=1;whiteSpace=wrap;shape=cylinder3;size=4;anchorPointDirection=0;boundedLbl=1;fontSize=15;fontFamily=Roboto;fontColor=#172b4d;spacing=3.8;strokeOpacity=100;fillOpacity=100;fillColor=#ffeca9;strokeWidth=1.5;lucidId=SP25RpVmIRYf;" vertex="1" parent="1">
          <mxGeometry x="-60" y="-1547" width="53" height="53" as="geometry" />
        </mxCell>
        <mxCell id="7xM-WGdvNuDhOGoBFhVq-41" value="" style="html=1;jettySize=18;whiteSpace=wrap;fontSize=13;strokeOpacity=100;strokeWidth=1.5;rounded=1;arcSize=0;curved=1;startArrow=none;endArrow=block;endFill=1;exitX=0.5;exitY=-0.015;exitPerimeter=0;entryX=0.584;entryY=1.01;entryPerimeter=0;lucidId=SP25uA0.IPHr;" edge="1" parent="1" source="7xM-WGdvNuDhOGoBFhVq-32" target="7xM-WGdvNuDhOGoBFhVq-40">
          <mxGeometry width="100" height="100" relative="1" as="geometry">
            <Array as="points">
              <mxPoint x="-27" y="-1647" />
              <mxPoint x="-29" y="-1306" />
            </Array>
          </mxGeometry>
        </mxCell>
        <mxCell id="7xM-WGdvNuDhOGoBFhVq-42" value="Whereabout" style="html=1;overflow=block;blockSpacing=1;whiteSpace=wrap;fontSize=21.8;fontColor=#c92d39;spacing=3.8;strokeOpacity=0;fillOpacity=0;fillColor=#ffffff;strokeWidth=1.5;lucidId=SP25X__Fc8zw;" vertex="1" parent="1">
          <mxGeometry x="-450" y="-1095" width="106" height="40" as="geometry" />
        </mxCell>
        <mxCell id="7xM-WGdvNuDhOGoBFhVq-43" value="" style="html=1;overflow=block;blockSpacing=1;whiteSpace=wrap;shape=image;fontSize=13;spacing=3.8;strokeOpacity=100;strokeWidth=0.8;image=https://images.app.lucidchart.com/images/a00d7c9d-b0b2-4f0f-867c-48a2280228c8/content;imageAspect=0;lucidId=SP25EQzId8tx;" vertex="1" parent="1">
          <mxGeometry x="-757" y="-1497" width="79" height="79" as="geometry" />
        </mxCell>
        <mxCell id="7xM-WGdvNuDhOGoBFhVq-44" value="Auth0" style="html=1;overflow=block;blockSpacing=1;whiteSpace=wrap;fontSize=16.7;fontColor=default;spacing=3.8;strokeOpacity=0;fillOpacity=0;fillColor=#ffffff;strokeWidth=1.5;lucidId=SP25tA2Oal85;" vertex="1" parent="1">
          <mxGeometry x="-775" y="-1620" width="106" height="40" as="geometry" />
        </mxCell>
        <mxCell id="7xM-WGdvNuDhOGoBFhVq-45" value="Users" style="html=1;overflow=block;blockSpacing=1;whiteSpace=wrap;shape=cylinder3;size=4;anchorPointDirection=0;boundedLbl=1;fontSize=17.3;fontFamily=Roboto;fontColor=#172b4d;spacing=3.8;strokeOpacity=100;fillOpacity=100;fillColor=#ffeca9;strokeWidth=1.5;lucidId=SP25KtTRxf.c;" vertex="1" parent="1">
          <mxGeometry x="-749" y="-1576" width="53" height="53" as="geometry" />
        </mxCell>
        <mxCell id="7xM-WGdvNuDhOGoBFhVq-46" value="" style="html=1;jettySize=18;whiteSpace=wrap;fontSize=13;strokeOpacity=100;strokeWidth=1.5;rounded=1;arcSize=0;curved=1;startArrow=none;endArrow=block;endFill=1;exitX=0.454;exitY=-0.005;exitPerimeter=0;entryX=0.5;entryY=1.014;entryPerimeter=0;lucidId=SP25LoXxKhzy;" edge="1" parent="1" source="7xM-WGdvNuDhOGoBFhVq-43" target="7xM-WGdvNuDhOGoBFhVq-45">
          <mxGeometry width="100" height="100" relative="1" as="geometry">
            <Array as="points">
              <mxPoint x="-721" y="-1685" />
              <mxPoint x="-722" y="-1335" />
            </Array>
          </mxGeometry>
        </mxCell>
        <mxCell id="7xM-WGdvNuDhOGoBFhVq-47" value="AWS EC2 m4.large (us-west-2)" style="html=1;overflow=block;blockSpacing=1;whiteSpace=wrap;fontSize=16.7;fontColor=default;spacing=3.8;strokeOpacity=0;fillOpacity=0;fillColor=#ffffff;strokeWidth=1.5;lucidId=SP25-m3_cHvS;" vertex="1" parent="1">
          <mxGeometry x="-480" y="-1590" width="294" height="47" as="geometry" />
        </mxCell>
        <mxCell id="7xM-WGdvNuDhOGoBFhVq-48" value="" style="html=1;overflow=block;blockSpacing=1;whiteSpace=wrap;shape=image;fontSize=13;spacing=0;strokeColor=none;strokeOpacity=100;strokeWidth=0;image=https://images.app.lucidchart.com/images/b56ef2d0-9cb2-4b82-b44b-f90e7e55ca08/content;imageAspect=0;lucidId=SP25~~31RY-r;" vertex="1" parent="1">
          <mxGeometry x="405" y="-765" width="115" height="56" as="geometry" />
        </mxCell>
        <mxCell id="7xM-WGdvNuDhOGoBFhVq-49" value="" style="html=1;overflow=block;blockSpacing=1;whiteSpace=wrap;shape=image;fontSize=13;spacing=3.8;strokeColor=none;strokeOpacity=100;strokeWidth=0;image=https://images.app.lucidchart.com/images/16d7527f-73f7-4735-9f15-65c41a83e864/content;imageAspect=0;lucidId=SP25Vcq5XoA5;" vertex="1" parent="1">
          <mxGeometry x="-600" y="-1605" width="40" height="24" as="geometry" />
        </mxCell>
        <mxCell id="7xM-WGdvNuDhOGoBFhVq-50" value="" style="html=1;overflow=block;blockSpacing=1;whiteSpace=wrap;shape=image;fontSize=13;spacing=0;strokeColor=none;strokeOpacity=100;strokeWidth=0;image=https://images.app.lucidchart.com/images/0624f3f4-d8ee-44c0-9a1d-2fa07d7c1bad/content;imageAspect=0;lucidId=SP25RvvRE-6h;" vertex="1" parent="1">
          <mxGeometry x="-780" y="-1222" width="106" height="37" as="geometry" />
        </mxCell>
        <mxCell id="7xM-WGdvNuDhOGoBFhVq-51" value="" style="html=1;overflow=block;blockSpacing=1;whiteSpace=wrap;shape=image;fontSize=13;spacing=0;strokeColor=none;strokeOpacity=100;strokeWidth=0;image=https://images.app.lucidchart.com/images/bb8f57a5-a7a7-4cc0-8c38-ae6122d94f88/content;imageAspect=0;lucidId=SP25MpsV6Ynk;" vertex="1" parent="1">
          <mxGeometry x="-771" y="-1274" width="91" height="48" as="geometry" />
        </mxCell>
        <mxCell id="7xM-WGdvNuDhOGoBFhVq-52" value="Monitoring&#xa;&amp;&#xa;Error Tracking" style="html=1;overflow=block;blockSpacing=1;whiteSpace=wrap;fontSize=15;fontColor=default;spacing=3.8;strokeOpacity=0;fillOpacity=0;fillColor=#ffffff;strokeWidth=1.5;lucidId=SP25jBxqQZJF;" vertex="1" parent="1">
          <mxGeometry x="-780" y="-1371" width="106" height="58" as="geometry" />
        </mxCell>
        <mxCell id="7xM-WGdvNuDhOGoBFhVq-53" value="" style="html=1;overflow=block;blockSpacing=1;whiteSpace=wrap;shape=image;fontSize=13;spacing=3.8;strokeColor=none;strokeOpacity=100;strokeWidth=0;image=https://images.app.lucidchart.com/images/a00d7c9d-b0b2-4f0f-867c-48a2280228c8/content;imageAspect=0;lucidId=SP25geDPiQSh;" vertex="1" parent="1">
          <mxGeometry x="-660" y="-930" width="51" height="51" as="geometry" />
        </mxCell>
        <mxCell id="7xM-WGdvNuDhOGoBFhVq-54" value="" style="html=1;overflow=block;blockSpacing=1;whiteSpace=wrap;fontSize=13;spacing=3.8;strokeColor=#834187;strokeOpacity=100;rounded=1;absoluteArcSize=1;arcSize=7.5;strokeWidth=2.3;lucidId=SP25Omv3BCvl;" vertex="1" parent="1">
          <mxGeometry x="-1020" y="-1620" width="234" height="211" as="geometry" />
        </mxCell>
        <mxCell id="7xM-WGdvNuDhOGoBFhVq-55" value="" style="html=1;overflow=block;blockSpacing=1;whiteSpace=wrap;shape=image;fontSize=13;spacing=0;strokeColor=none;strokeOpacity=100;strokeWidth=0;image=https://images.lucidchart.com/images/06768544-8213-47c1-bcdb-1f23b536d16c/content;imageAspect=0;lucidId=SP25U9Cqr1aN;" vertex="1" parent="1">
          <mxGeometry x="-1011" y="-1514" width="202" height="35" as="geometry" />
        </mxCell>
        <mxCell id="7xM-WGdvNuDhOGoBFhVq-56" value="Third Party Cloud Services" style="html=1;overflow=block;blockSpacing=1;whiteSpace=wrap;fontSize=15;fontColor=default;spacing=3.8;strokeOpacity=0;fillOpacity=0;fillColor=#ffffff;strokeWidth=1.5;lucidId=SP25~Uyhm-fS;" vertex="1" parent="1">
          <mxGeometry x="-1020" y="-1611" width="211" height="35" as="geometry" />
        </mxCell>
        <mxCell id="7xM-WGdvNuDhOGoBFhVq-57" value="" style="html=1;overflow=block;blockSpacing=1;whiteSpace=wrap;shape=image;fontSize=13;spacing=0;strokeColor=none;strokeOpacity=100;strokeWidth=0;image=https://images.lucidchart.com/images/ea7fa7a8-fb10-4f62-b34c-eb7e5ef986d7/content;imageAspect=0;lucidId=SP25ynsv.Kdw;" vertex="1" parent="1">
          <mxGeometry x="-1011" y="-1585" width="218" height="70" as="geometry" />
        </mxCell>
        <mxCell id="7xM-WGdvNuDhOGoBFhVq-58" value="" style="html=1;overflow=block;blockSpacing=1;whiteSpace=wrap;shape=image;fontSize=13;spacing=0;strokeColor=none;strokeOpacity=100;strokeWidth=0;image=https://images.app.lucidchart.com/images/2cadc792-d510-4af3-9bd3-9251085fce86/content;imageAspect=0;lucidId=SP25miaAEIme;" vertex="1" parent="1">
          <mxGeometry x="-1002" y="-1471" width="194" height="54" as="geometry" />
        </mxCell>
        <mxCell id="7xM-WGdvNuDhOGoBFhVq-59" value="" style="html=1;jettySize=18;whiteSpace=wrap;fontSize=13;strokeOpacity=100;dashed=1;fixDash=1;dashPattern=1 2;strokeWidth=0.8;rounded=1;arcSize=0;curved=1;startArrow=none;endArrow=block;endFill=1;exitX=0.314;exitY=0;exitPerimeter=0;entryX=0.372;entryY=1.007;entryPerimeter=0;lucidId=SP25voiC.nEi;" edge="1" parent="1" source="7xM-WGdvNuDhOGoBFhVq-18" target="7xM-WGdvNuDhOGoBFhVq-8">
          <mxGeometry width="100" height="100" relative="1" as="geometry">
            <Array as="points">
              <mxPoint x="-652" y="-1229" />
              <mxPoint x="-741" y="-980" />
            </Array>
          </mxGeometry>
        </mxCell>
        <mxCell id="7xM-WGdvNuDhOGoBFhVq-60" value="" style="html=1;jettySize=18;whiteSpace=wrap;fontSize=13;strokeOpacity=100;strokeWidth=0.8;rounded=1;arcSize=0;curved=1;startArrow=none;endArrow=block;endFill=1;exitX=0.5;exitY=0.792;exitPerimeter=0;entryX=0.605;entryY=0;entryPerimeter=0;lucidId=SP25caqdqHSi;" edge="1" parent="1" source="7xM-WGdvNuDhOGoBFhVq-79" target="7xM-WGdvNuDhOGoBFhVq-18">
          <mxGeometry width="100" height="100" relative="1" as="geometry">
            <Array as="points">
              <mxPoint x="-540" y="-1368" />
              <mxPoint x="-623" y="-1229" />
            </Array>
          </mxGeometry>
        </mxCell>
        <mxCell id="7xM-WGdvNuDhOGoBFhVq-61" value="" style="html=1;overflow=block;blockSpacing=1;whiteSpace=wrap;shape=image;fontSize=13;spacing=3.8;strokeColor=none;strokeOpacity=100;strokeWidth=0;image=https://images.app.lucidchart.com/images/a00d7c9d-b0b2-4f0f-867c-48a2280228c8/content;imageAspect=0;lucidId=SP25MKhFiDyi;" vertex="1" parent="1">
          <mxGeometry x="-465" y="-900" width="42" height="42" as="geometry" />
        </mxCell>
        <mxCell id="7xM-WGdvNuDhOGoBFhVq-62" value="" style="html=1;overflow=block;blockSpacing=1;whiteSpace=wrap;shape=image;fontSize=13;spacing=3.8;strokeColor=none;strokeOpacity=100;strokeWidth=0;image=https://images.app.lucidchart.com/images/bd761d0e-227b-4170-91c2-f23f4ef69759/content;imageAspect=0;lucidId=SP25S04xa-HB;" vertex="1" parent="1">
          <mxGeometry x="253" y="-905" width="56" height="56" as="geometry" />
        </mxCell>
        <mxCell id="7xM-WGdvNuDhOGoBFhVq-63" value="" style="html=1;overflow=block;blockSpacing=1;whiteSpace=wrap;shape=image;fontSize=13;spacing=3.8;strokeColor=none;strokeOpacity=100;strokeWidth=0;image=https://images.app.lucidchart.com/images/a00d7c9d-b0b2-4f0f-867c-48a2280228c8/content;imageAspect=0;lucidId=SP2532i-RtL-;" vertex="1" parent="1">
          <mxGeometry x="301" y="-890" width="41" height="41" as="geometry" />
        </mxCell>
        <mxCell id="7xM-WGdvNuDhOGoBFhVq-64" value="" style="html=1;overflow=block;blockSpacing=1;whiteSpace=wrap;shape=image;fontSize=13;spacing=0;strokeColor=none;strokeOpacity=100;strokeWidth=0;image=https://images.app.lucidchart.com/images/79569444-5300-41dc-ab4f-6bb1af09d2ae/content;imageAspect=0;lucidId=SP25P0Ve0wek;" vertex="1" parent="1">
          <mxGeometry x="-289" y="-1034" width="101" height="101" as="geometry" />
        </mxCell>
        <mxCell id="7xM-WGdvNuDhOGoBFhVq-65" value="&lt;div style=&quot;display: flex; justify-content: flex-start; text-align: left; align-items: baseline; font-size: 0; line-height: 1.25;margin-top: -2px;&quot;&gt;&lt;span&gt;&lt;span style=&quot;font-size:20.7px;color:#1d1d1f;font-weight: bold;&quot;&gt;WhaleReport PWA&lt;/span&gt;&lt;span style=&quot;font-size:12.7px;color:#000000;&quot;&gt;&#xa;&lt;/span&gt;&lt;/span&gt;&lt;/div&gt;&lt;div style=&quot;display: flex; justify-content: flex-start; text-align: left; align-items: baseline; font-size: 0; line-height: 1.25;margin-top: -2px;&quot;&gt;&lt;span&gt;&lt;a href=&quot;https://report.wildwhales.org/&quot;&gt;&lt;span style=&quot;font-size:16.3px;color:#0070c9;&quot;&gt;https://report.wildwhales.org/&lt;/span&gt;&lt;/a&gt;&lt;/span&gt;&lt;/div&gt;" style="html=1;overflow=block;blockSpacing=1;whiteSpace=wrap;fontSize=13;align=left;spacing=3.8;verticalAlign=top;strokeColor=none;fillOpacity=0;fillColor=#ffffff;strokeWidth=0;lucidId=SP25a.I8QYnC;" vertex="1" parent="1">
          <mxGeometry x="-315" y="-906" width="184" height="36" as="geometry" />
        </mxCell>
        <mxCell id="7xM-WGdvNuDhOGoBFhVq-66" value="Sighiting Photos" style="html=1;overflow=block;blockSpacing=1;whiteSpace=wrap;shape=mxgraph.aws3.bucket;labelPosition=center;verticalLabelPosition=bottom;align=center;verticalAlign=top;pointerEvents=1;fontSize=15;fontColor=default;spacing=3.8;strokeOpacity=100;fillColor=#e05243;strokeWidth=3.8;lucidId=SP25xjJw.wNB;" vertex="1" parent="1">
          <mxGeometry x="-135" y="-1365" width="51" height="62" as="geometry" />
        </mxCell>
        <mxCell id="7xM-WGdvNuDhOGoBFhVq-67" value="WhaleReport API V3" style="html=1;overflow=block;blockSpacing=1;whiteSpace=wrap;shape=mxgraph.aws4.resourceIcon;resIcon=mxgraph.aws4.api_gateway;labelPosition=center;verticalLabelPosition=bottom;align=center;verticalAlign=top;strokeColor=#ffffff;pointerEvents=1;fontSize=15;fontColor=default;spacing=0;strokeOpacity=100;fillColor=#d6242d;strokeWidth=3.8;lucidId=SP255PsBdgnv;" vertex="1" parent="1">
          <mxGeometry x="-135" y="-1275" width="53" height="53" as="geometry" />
        </mxCell>
        <mxCell id="7xM-WGdvNuDhOGoBFhVq-68" value="emsa API" style="html=1;overflow=block;blockSpacing=1;whiteSpace=wrap;fontSize=15;fontColor=default;spacing=3.8;strokeColor=#3aa6dd;strokeOpacity=100;fillOpacity=100;rounded=1;absoluteArcSize=1;arcSize=15;fillColor=#99d2f2;strokeWidth=1.5;lucidId=SP25tqYJSCcN;" vertex="1" parent="1">
          <mxGeometry x="75" y="-1457" width="97" height="52" as="geometry" />
        </mxCell>
        <mxCell id="7xM-WGdvNuDhOGoBFhVq-69" value="emsa" style="html=1;overflow=block;blockSpacing=1;whiteSpace=wrap;shape=cylinder3;size=4;anchorPointDirection=0;boundedLbl=1;fontSize=15;fontFamily=Roboto;fontColor=#172b4d;spacing=3.8;strokeOpacity=100;fillOpacity=100;fillColor=#ffeca9;strokeWidth=1.5;lucidId=SP25mBEkf9ie;" vertex="1" parent="1">
          <mxGeometry x="90" y="-1545" width="53" height="53" as="geometry" />
        </mxCell>
        <mxCell id="7xM-WGdvNuDhOGoBFhVq-70" value="" style="html=1;jettySize=18;whiteSpace=wrap;fontSize=13;strokeOpacity=100;strokeWidth=1.5;rounded=1;arcSize=0;curved=1;startArrow=none;endArrow=block;endFill=1;exitX=0.5;exitY=-0.015;exitPerimeter=0;entryX=0.5;entryY=1.014;entryPerimeter=0;lucidId=SP25vse.faKJ;" edge="1" parent="1" source="7xM-WGdvNuDhOGoBFhVq-68" target="7xM-WGdvNuDhOGoBFhVq-69">
          <mxGeometry width="100" height="100" relative="1" as="geometry">
            <Array as="points">
              <mxPoint x="123" y="-1645" />
              <mxPoint x="116" y="-1304" />
            </Array>
          </mxGeometry>
        </mxCell>
        <mxCell id="7xM-WGdvNuDhOGoBFhVq-71" value="" style="html=1;jettySize=18;whiteSpace=wrap;fontSize=13;strokeOpacity=100;strokeWidth=0.8;rounded=1;arcSize=0;curved=1;startArrow=none;endArrow=block;endFill=1;exitX=0.571;exitY=-0.003;exitPerimeter=0;entryX=0.5;entryY=1.015;entryPerimeter=0;lucidId=SP25rBFlw5VJ;" edge="1" parent="1" source="7xM-WGdvNuDhOGoBFhVq-5" target="7xM-WGdvNuDhOGoBFhVq-12">
          <mxGeometry width="100" height="100" relative="1" as="geometry">
            <Array as="points">
              <mxPoint x="-77" y="-1238" />
              <mxPoint x="-225" y="-1219" />
            </Array>
          </mxGeometry>
        </mxCell>
        <mxCell id="7xM-WGdvNuDhOGoBFhVq-72" value="" style="html=1;jettySize=18;whiteSpace=wrap;fontSize=13;strokeOpacity=100;strokeWidth=1.5;rounded=1;arcSize=0;curved=1;startArrow=none;endArrow=block;endFill=1;exitX=0.571;exitY=-0.003;exitPerimeter=0;entryX=0.5;entryY=1;entryPerimeter=0;lucidId=SP25kk6btmMF;" edge="1" parent="1" source="7xM-WGdvNuDhOGoBFhVq-5" target="7xM-WGdvNuDhOGoBFhVq-67">
          <mxGeometry width="100" height="100" relative="1" as="geometry">
            <Array as="points">
              <mxPoint x="-77" y="-1238" />
              <mxPoint x="-109" y="-1035" />
            </Array>
          </mxGeometry>
        </mxCell>
        <mxCell id="7xM-WGdvNuDhOGoBFhVq-73" value="" style="html=1;jettySize=18;whiteSpace=wrap;fontSize=13;strokeOpacity=100;strokeWidth=1.5;rounded=1;arcSize=0;curved=1;startArrow=none;endArrow=block;endFill=1;exitX=0.5;exitY=0;exitPerimeter=0;entryX=0.5;entryY=0.756;entryPerimeter=0;lucidId=SP25mPhviwu~;" edge="1" parent="1" source="7xM-WGdvNuDhOGoBFhVq-67" target="7xM-WGdvNuDhOGoBFhVq-66">
          <mxGeometry width="100" height="100" relative="1" as="geometry">
            <Array as="points">
              <mxPoint x="-109" y="-1462" />
              <mxPoint x="-110" y="-1318" />
            </Array>
          </mxGeometry>
        </mxCell>
        <mxCell id="7xM-WGdvNuDhOGoBFhVq-74" value="" style="html=1;overflow=block;blockSpacing=1;whiteSpace=wrap;shape=image;fontSize=13;spacing=0;strokeOpacity=100;strokeWidth=0.8;image=https://images.lucid.app/images/5f17800d-1bbd-4f75-8f27-7e4225c0a68a/content;imageAspect=0;lucidId=SP251rCYLC3Y;" vertex="1" parent="1">
          <mxGeometry x="495" y="-1455" width="215" height="82" as="geometry" />
        </mxCell>
        <mxCell id="7xM-WGdvNuDhOGoBFhVq-75" value="" style="html=1;jettySize=18;whiteSpace=wrap;fontSize=13;strokeOpacity=100;strokeWidth=0.8;rounded=1;arcSize=0;curved=1;startArrow=block;startFill=1;endArrow=block;endFill=1;exitX=-0.002;exitY=0.5;exitPerimeter=0;entryX=1.008;entryY=0.5;entryPerimeter=0;lucidId=SP25gWmkLD7c;" edge="1" parent="1" source="7xM-WGdvNuDhOGoBFhVq-74" target="7xM-WGdvNuDhOGoBFhVq-68">
          <mxGeometry width="100" height="100" relative="1" as="geometry">
            <Array as="points">
              <mxPoint x="307" y="-1414" />
              <mxPoint x="360" y="-1431" />
            </Array>
          </mxGeometry>
        </mxCell>
        <mxCell id="7xM-WGdvNuDhOGoBFhVq-76" value="" style="html=1;overflow=block;blockSpacing=1;whiteSpace=wrap;shape=image;fontSize=13;spacing=0;strokeOpacity=100;strokeWidth=0.8;image=https://images.lucid.app/images/27c7b551-dea4-4e80-8d4c-ef6d391f6e31/content;imageAspect=0;lucidId=SP25Pj_-OVtp;" vertex="1" parent="1">
          <mxGeometry x="495" y="-1560" width="217" height="96" as="geometry" />
        </mxCell>
        <mxCell id="7xM-WGdvNuDhOGoBFhVq-77" value="" style="html=1;jettySize=18;whiteSpace=wrap;fontSize=13;strokeOpacity=100;strokeWidth=0.8;rounded=1;arcSize=0;edgeStyle=orthogonalEdgeStyle;startArrow=none;endArrow=block;endFill=1;exitX=0.5;exitY=-0.014;exitPerimeter=0;entryX=0.5;entryY=-0.014;entryPerimeter=0;lucidId=SP25lNAIlEDd;" edge="1" parent="1" source="7xM-WGdvNuDhOGoBFhVq-11" target="7xM-WGdvNuDhOGoBFhVq-69">
          <mxGeometry width="100" height="100" relative="1" as="geometry">
            <Array as="points" />
          </mxGeometry>
        </mxCell>
        <mxCell id="7xM-WGdvNuDhOGoBFhVq-78" value="email notification" style="html=1;overflow=block;blockSpacing=1;whiteSpace=wrap;shape=mxgraph.aws3.email_notification;labelPosition=center;verticalLabelPosition=bottom;align=center;verticalAlign=top;pointerEvents=1;fontSize=15.2;fontColor=default;spacing=3.8;strokeOpacity=100;fillColor=#D9A741;strokeWidth=3.8;lucidId=SP253qhGYmPV;" vertex="1" parent="1">
          <mxGeometry x="-600" y="-1547" width="90" height="71" as="geometry" />
        </mxCell>
        <mxCell id="7xM-WGdvNuDhOGoBFhVq-79" value="Alert SMS" style="html=1;overflow=block;blockSpacing=1;whiteSpace=wrap;shape=mxgraph.aws3.topic_2;labelPosition=center;verticalLabelPosition=bottom;align=center;verticalAlign=top;pointerEvents=1;fontSize=15.2;fontColor=default;spacing=3.8;strokeOpacity=100;fillColor=#d9a741;strokeWidth=3.8;lucidId=SP25LiFwIvVO;" vertex="1" parent="1">
          <mxGeometry x="-585" y="-1425" width="90" height="72" as="geometry" />
        </mxCell>
        <mxCell id="7xM-WGdvNuDhOGoBFhVq-80" value="" style="html=1;jettySize=18;whiteSpace=wrap;fontSize=13;strokeOpacity=100;strokeWidth=0.8;rounded=1;arcSize=0;curved=1;startArrow=none;endArrow=block;endFill=1;exitX=-0.008;exitY=0.5;exitPerimeter=0;entryX=1;entryY=0.5;entryPerimeter=0;lucidId=SP25p7UxTndq;" edge="1" parent="1" source="7xM-WGdvNuDhOGoBFhVq-12" target="7xM-WGdvNuDhOGoBFhVq-78">
          <mxGeometry width="100" height="100" relative="1" as="geometry">
            <Array as="points">
              <mxPoint x="-462" y="-1433" />
              <mxPoint x="-323" y="-1511" />
            </Array>
          </mxGeometry>
        </mxCell>
        <mxCell id="7xM-WGdvNuDhOGoBFhVq-81" value="Sighting Notifications" style="html=1;overflow=block;blockSpacing=1;whiteSpace=wrap;fontSize=21.8;fontColor=#c92d39;spacing=3.8;strokeOpacity=0;fillOpacity=0;fillColor=#ffffff;strokeWidth=1.5;lucidId=SP259tFMQHjL;" vertex="1" parent="1">
          <mxGeometry x="465" y="-1350" width="106" height="60" as="geometry" />
        </mxCell>
        <mxCell id="7xM-WGdvNuDhOGoBFhVq-82" value="My Sightings" style="html=1;overflow=block;blockSpacing=1;whiteSpace=wrap;fontSize=21.8;fontColor=#c92d39;spacing=3.8;strokeOpacity=0;fillOpacity=0;fillColor=#ffffff;strokeWidth=1.5;lucidId=SP25veKja2kl;" vertex="1" parent="1">
          <mxGeometry x="270" y="-1110" width="106" height="60" as="geometry" />
        </mxCell>
        <mxCell id="7xM-WGdvNuDhOGoBFhVq-83" value="Third Party API Integration" style="html=1;overflow=block;blockSpacing=1;whiteSpace=wrap;fontSize=15;fontColor=default;spacing=3.8;strokeOpacity=0;fillOpacity=0;fillColor=#ffffff;strokeWidth=1.5;lucidId=SP25erkmpdmL;" vertex="1" parent="1">
          <mxGeometry x="450" y="-1620" width="211" height="35" as="geometry" />
        </mxCell>
        <mxCell id="7xM-WGdvNuDhOGoBFhVq-84" value="WhaleReport API V4" style="html=1;overflow=block;blockSpacing=1;whiteSpace=wrap;shape=mxgraph.aws4.resourceIcon;resIcon=mxgraph.aws4.api_gateway;labelPosition=center;verticalLabelPosition=bottom;align=center;verticalAlign=top;strokeColor=#ffffff;pointerEvents=1;fontSize=15;fontColor=default;spacing=0;strokeOpacity=100;fillColor=#d6242d;strokeWidth=3.8;lucidId=SP25cAAy_09s;" vertex="1" parent="1">
          <mxGeometry x="-315" y="-1275" width="53" height="53" as="geometry" />
        </mxCell>
        <mxCell id="7xM-WGdvNuDhOGoBFhVq-85" value="" style="html=1;jettySize=18;whiteSpace=wrap;fontSize=13;strokeColor=#0c7cba;strokeOpacity=100;strokeWidth=1.5;rounded=1;arcSize=0;curved=1;startArrow=none;endArrow=block;endFill=1;exitX=0.198;exitY=-0.003;exitPerimeter=0;entryX=0.5;entryY=1;entryPerimeter=0;lucidId=SP25FL4reCe6;" edge="1" parent="1" source="7xM-WGdvNuDhOGoBFhVq-5" target="7xM-WGdvNuDhOGoBFhVq-84">
          <mxGeometry width="100" height="100" relative="1" as="geometry">
            <Array as="points">
              <mxPoint x="-234" y="-1238" />
              <mxPoint x="-289" y="-1035" />
            </Array>
          </mxGeometry>
        </mxCell>
        <mxCell id="7xM-WGdvNuDhOGoBFhVq-86" value="" style="html=1;jettySize=18;whiteSpace=wrap;fontSize=13;strokeOpacity=100;strokeWidth=0.8;rounded=1;arcSize=0;curved=1;startArrow=none;endArrow=block;endFill=1;exitX=0.5;exitY=0;exitPerimeter=0;entryX=-0.014;entryY=0.5;entryPerimeter=0;lucidId=SP25J~Opw9dw;" edge="1" parent="1" source="7xM-WGdvNuDhOGoBFhVq-84" target="7xM-WGdvNuDhOGoBFhVq-11">
          <mxGeometry width="100" height="100" relative="1" as="geometry">
            <Array as="points">
              <mxPoint x="-289" y="-1462" />
              <mxPoint x="-443" y="-1519" />
            </Array>
          </mxGeometry>
        </mxCell>
        <mxCell id="7xM-WGdvNuDhOGoBFhVq-87" value="DND API" style="html=1;overflow=block;blockSpacing=1;whiteSpace=wrap;shape=mxgraph.aws4.resourceIcon;resIcon=mxgraph.aws4.api_gateway;labelPosition=center;verticalLabelPosition=bottom;align=center;verticalAlign=top;strokeColor=#ffffff;pointerEvents=1;fontSize=15;fontColor=default;spacing=0;strokeOpacity=100;fillColor=#d6242d;strokeWidth=3.8;lucidId=SP25jMEiBCr_;" vertex="1" parent="1">
          <mxGeometry x="275" y="-1585" width="53" height="53" as="geometry" />
        </mxCell>
        <mxCell id="7xM-WGdvNuDhOGoBFhVq-88" value="" style="html=1;jettySize=18;whiteSpace=wrap;fontSize=13;strokeOpacity=100;strokeWidth=0.8;rounded=1;arcSize=0;curved=1;startArrow=none;endArrow=block;endFill=1;exitX=-0.002;exitY=0.5;exitPerimeter=0;entryX=1;entryY=0.5;entryPerimeter=0;lucidId=SP25rzpHZMK_;" edge="1" parent="1" source="7xM-WGdvNuDhOGoBFhVq-76" target="7xM-WGdvNuDhOGoBFhVq-87">
          <mxGeometry width="100" height="100" relative="1" as="geometry">
            <Array as="points">
              <mxPoint x="307" y="-1512" />
              <mxPoint x="515" y="-1558" />
            </Array>
          </mxGeometry>
        </mxCell>
        <mxCell id="7xM-WGdvNuDhOGoBFhVq-89" value="" style="html=1;overflow=block;blockSpacing=1;whiteSpace=wrap;shape=image;fontSize=13;spacing=3.8;strokeColor=none;strokeOpacity=100;strokeWidth=0;image=https://images.app.lucidchart.com/images/a00d7c9d-b0b2-4f0f-867c-48a2280228c8/content;imageAspect=0;lucidId=SP25ep9NexaD;" vertex="1" parent="1">
          <mxGeometry x="447" y="-1410" width="45" height="45" as="geometry" />
        </mxCell>
        <mxCell id="7xM-WGdvNuDhOGoBFhVq-90" value="" style="html=1;jettySize=18;whiteSpace=wrap;fontSize=13;strokeOpacity=100;strokeWidth=0.8;rounded=1;arcSize=0;curved=1;startArrow=none;endArrow=block;endFill=1;exitX=0.5;exitY=0;exitPerimeter=0;entryX=0.103;entryY=0.5;entryPerimeter=0;lucidId=SP25tzH3Cb_0;" edge="1" parent="1" source="7xM-WGdvNuDhOGoBFhVq-84" target="7xM-WGdvNuDhOGoBFhVq-66">
          <mxGeometry width="100" height="100" relative="1" as="geometry">
            <Array as="points">
              <mxPoint x="-289" y="-1462" />
              <mxPoint x="-130" y="-1334" />
            </Array>
          </mxGeometry>
        </mxCell>
        <mxCell id="7xM-WGdvNuDhOGoBFhVq-91" value="" style="html=1;jettySize=18;whiteSpace=wrap;fontSize=13;strokeOpacity=100;strokeWidth=0.8;rounded=1;arcSize=0;curved=1;startArrow=none;endArrow=block;endFill=1;exitX=0.228;exitY=1.015;exitPerimeter=0;entryX=1;entryY=0.5;entryPerimeter=0;lucidId=SP2513gmrTie;" edge="1" parent="1" source="7xM-WGdvNuDhOGoBFhVq-32" target="7xM-WGdvNuDhOGoBFhVq-84">
          <mxGeometry width="100" height="100" relative="1" as="geometry">
            <Array as="points">
              <mxPoint x="-53" y="-1219" />
              <mxPoint x="-75" y="-1249" />
            </Array>
          </mxGeometry>
        </mxCell>
        <mxCell id="7xM-WGdvNuDhOGoBFhVq-92" value="" style="html=1;jettySize=18;whiteSpace=wrap;fontSize=13;strokeOpacity=100;strokeWidth=0.8;rounded=1;arcSize=0;curved=1;startArrow=none;endArrow=block;endFill=1;exitX=0.276;exitY=-0.015;exitPerimeter=0;entryX=0.874;entryY=-0.015;entryPerimeter=0;lucidId=SP25M_V-xhmE;" edge="1" parent="1" source="7xM-WGdvNuDhOGoBFhVq-32" target="7xM-WGdvNuDhOGoBFhVq-24">
          <mxGeometry width="100" height="100" relative="1" as="geometry">
            <Array as="points">
              <mxPoint x="-48" y="-1647" />
              <mxPoint x="-365" y="-1647" />
            </Array>
          </mxGeometry>
        </mxCell>
        <mxCell id="7xM-WGdvNuDhOGoBFhVq-93" value="" style="html=1;jettySize=18;whiteSpace=wrap;fontSize=13;strokeOpacity=100;strokeWidth=0.8;rounded=1;arcSize=0;curved=1;startArrow=none;endArrow=block;endFill=1;exitX=0.5;exitY=-0.014;exitPerimeter=0;entryX=0.065;entryY=-0.013;entryPerimeter=0;lucidId=SP25I~YFwWB8;" edge="1" parent="1" source="7xM-WGdvNuDhOGoBFhVq-38" target="7xM-WGdvNuDhOGoBFhVq-32">
          <mxGeometry width="100" height="100" relative="1" as="geometry">
            <Array as="points">
              <mxPoint x="-394" y="-1735" />
              <mxPoint x="-256" y="-1647" />
            </Array>
          </mxGeometry>
        </mxCell>
        <mxCell id="7xM-WGdvNuDhOGoBFhVq-94" value="" style="html=1;jettySize=18;whiteSpace=wrap;fontSize=13;strokeOpacity=100;strokeWidth=0.8;rounded=1;arcSize=0;curved=1;startArrow=none;endArrow=block;endFill=1;exitX=0.5;exitY=-0.014;exitPerimeter=0;entryX=0.854;entryY=-0.015;entryPerimeter=0;lucidId=SP256TG1ZKc5;" edge="1" parent="1" source="7xM-WGdvNuDhOGoBFhVq-11" target="7xM-WGdvNuDhOGoBFhVq-32">
          <mxGeometry width="100" height="100" relative="1" as="geometry">
            <Array as="points">
              <mxPoint x="-229" y="-1733" />
              <mxPoint x="8" y="-1647" />
            </Array>
          </mxGeometry>
        </mxCell>
      </root>
    </mxGraphModel>
  </diagram>
</mxfile>
